<svg width="55" height="55" viewBox="0 0 55 55" fill="none" xmlns="http://www.w3.org/2000/svg">
<path d="M12.8906 22.3438H14.6094C15.5547 22.3438 16.3281 21.5703 16.3281 20.625C16.3281 19.6797 15.5547 18.9062 14.6094 18.9062H12.8906C11.9453 18.9062 11.1719 19.6797 11.1719 20.625C11.1719 21.5703 11.9453 22.3438 12.8906 22.3438Z" fill="#D3AF37"/>
<path d="M21.4844 22.3438H33.5156C34.4609 22.3438 35.2344 21.5703 35.2344 20.625C35.2344 19.6797 34.4609 18.9062 33.5156 18.9062H21.4844C20.5391 18.9062 19.7656 19.6797 19.7656 20.625C19.7656 21.5703 20.5391 22.3438 21.4844 22.3438Z" fill="#D3AF37"/>
<path d="M40.3906 22.3438H42.1094C43.0547 22.3438 43.8281 21.5703 43.8281 20.625C43.8281 19.6797 43.0547 18.9062 42.1094 18.9062H40.3906C39.4453 18.9062 38.6719 19.6797 38.6719 20.625C38.6719 21.5703 39.4453 22.3438 40.3906 22.3438Z" fill="#D3AF37"/>
<path d="M51.5625 12.0312H41.25V6.875C41.25 4.03906 38.9297 1.71875 36.0938 1.71875H18.9062C16.0703 1.71875 13.75 4.03906 13.75 6.875V12.0312H3.4375C2.49219 12.0312 1.71875 12.8047 1.71875 13.75V25.5063C1.71875 26.9844 2.37187 28.3422 3.4375 29.3047V48.125C3.4375 50.9609 5.75781 53.2812 8.59375 53.2812H46.4062C49.2422 53.2812 51.5625 50.9609 51.5625 48.125V29.3047C52.6281 28.3422 53.2812 26.9672 53.2812 25.5063V13.75C53.2812 12.8047 52.5078 12.0312 51.5625 12.0312ZM17.1875 6.875C17.1875 5.92969 17.9609 5.15625 18.9062 5.15625H36.0938C37.0391 5.15625 37.8125 5.92969 37.8125 6.875V12.0312H17.1875V6.875ZM5.15625 15.4688H49.8438V25.5063C49.8438 26.125 49.5172 26.6922 48.9844 27.0016L39.4797 32.4328C39.2219 32.5875 38.9297 32.6562 38.6203 32.6562H16.3797C16.0875 32.6562 15.7781 32.5703 15.5203 32.4328L6.01562 27.0016C5.48281 26.6922 5.15625 26.125 5.15625 25.5063V15.4688ZM24.9219 36.0938H30.0781V39.5312C30.0781 40.4766 29.3047 41.25 28.3594 41.25H26.6406C25.6953 41.25 24.9219 40.4766 24.9219 39.5312V36.0938ZM46.4062 49.8438H8.59375C7.64844 49.8438 6.875 49.0703 6.875 48.125V31.4359L13.8188 35.4062C14.5922 35.8531 15.4859 36.0938 16.3797 36.0938H21.4844V39.5312C21.4844 42.3672 23.8047 44.6875 26.6406 44.6875H28.3594C31.1953 44.6875 33.5156 42.3672 33.5156 39.5312V36.0938H38.6203C39.5141 36.0938 40.4078 35.8531 41.1812 35.4062L48.125 31.4359V48.125C48.125 49.0703 47.3516 49.8438 46.4062 49.8438Z" fill="#333333"/>
</svg>
