<svg width="55" height="55" viewBox="0 0 55 55" fill="none" xmlns="http://www.w3.org/2000/svg">
<path d="M49.8438 25.7812H48.2952C47.6627 18.2548 42.9155 11.5431 35.9992 8.44766L36.0817 7.4525C36.2605 5.29375 34.5538 3.4375 32.3864 3.4375H22.6119C20.4463 3.4375 18.7378 5.29203 18.9183 7.4525L19.0008 8.44766C12.0845 11.5431 7.33906 18.2548 6.70484 25.7812H5.15625C4.2075 25.7812 3.4375 26.5495 3.4375 27.5C3.4375 28.4505 4.2075 29.2188 5.15625 29.2188H49.8438C50.7925 29.2188 51.5625 28.4505 51.5625 27.5C51.5625 26.5495 50.7925 25.7812 49.8438 25.7812ZM19.3084 12.1223L19.7433 17.3302C19.8223 18.2772 20.6542 18.9888 21.5995 18.8994C22.5448 18.8203 23.2478 17.9919 23.1705 17.0448L22.3438 7.16719C22.3317 7.01078 22.4537 6.875 22.6136 6.875H32.3881C32.5462 6.875 32.6683 7.01078 32.6562 7.16719L31.833 17.0448C31.7539 17.9919 32.4569 18.8203 33.4039 18.8994C34.3028 18.9922 35.1777 18.3047 35.2602 17.3302L35.695 12.1223C40.7911 14.8534 44.2578 20.0131 44.8387 25.7812H10.163C10.7456 20.0131 14.2123 14.8534 19.3084 12.1223Z" fill="#333333"/>
<path d="M49.8438 36.0938H48.125C48.125 34.198 46.5833 32.6562 44.6875 32.6562H10.3125C8.41672 32.6562 6.875 34.198 6.875 36.0938H5.15625C4.2075 36.0938 3.4375 36.862 3.4375 37.8125C3.4375 38.763 4.2075 39.5312 5.15625 39.5312H6.875V44.6875C6.875 45.1447 7.05547 45.5813 7.37859 45.9027L10.8161 49.3402C11.1375 49.6633 11.5758 49.8438 12.0312 49.8438H22.3438C22.9178 49.8438 23.4541 49.5567 23.7738 49.0789C25.0491 47.1694 26.7266 45.2358 27.5 44.7545C28.2734 45.2341 29.9509 47.1677 31.2262 49.0789C31.5459 49.5567 32.0822 49.8438 32.6562 49.8438H42.9688C43.4242 49.8438 43.8625 49.6633 44.1839 49.3402L47.6214 45.9027C47.9445 45.5813 48.125 45.1447 48.125 44.6875V39.5312H49.8438C50.7925 39.5312 51.5625 38.763 51.5625 37.8125C51.5625 36.862 50.7925 36.0938 49.8438 36.0938ZM44.6875 43.9759L42.2572 46.4062H33.5637C31.8037 43.8986 29.4783 41.25 27.5 41.25C25.5217 41.25 23.1963 43.8986 21.4363 46.4062H12.7428L10.3125 43.9759V36.0938H44.6875V43.9759Z" fill="#D3AF37"/>
</svg>
