<svg width="55" height="55" viewBox="0 0 55 55" fill="none" xmlns="http://www.w3.org/2000/svg">
<path d="M54.1191 27.2745C54.1366 26.6151 54.1548 25.9333 54.1233 25.2234C54.0383 23.2402 53.187 21.3674 51.7487 19.9993C50.3104 18.6312 48.3974 17.8746 46.4124 17.8888C43.2266 10.6001 35.9482 5.49316 27.4985 5.49316C19.0488 5.49316 11.7734 10.6 8.5875 17.8887C6.60298 17.8746 4.69037 18.6309 3.25223 19.9985C1.81408 21.3661 0.962557 23.2383 0.876869 25.221C0.845287 25.9334 0.863441 26.6153 0.880951 27.2748C0.899535 27.9715 0.918656 28.692 0.882885 29.5016C0.797585 31.5314 1.5207 33.5122 2.89366 35.0096C4.26662 36.507 6.17737 37.3988 8.20691 37.4895C8.32708 37.4951 8.447 37.4979 8.56666 37.4979C9.57825 37.4985 10.5797 37.2961 11.5116 36.9028C11.901 36.7397 12.2107 36.43 12.3737 36.0405C12.5368 35.6511 12.5402 35.2132 12.3833 34.8213C12.3638 34.7452 12.334 34.6722 12.2947 34.6042C10.8511 32.0108 10.0934 29.0918 10.0936 26.1236C10.0936 16.525 17.9014 8.71582 27.4985 8.71582C37.0956 8.71582 44.9064 16.5254 44.9064 26.1236C44.9177 30.1866 43.5029 34.1246 40.9086 37.2515C38.3143 40.3783 34.7051 42.4957 30.7099 43.2346C30.289 42.282 29.5486 41.5065 28.6166 41.0419C27.6845 40.5774 26.6195 40.4531 25.6056 40.6904C24.5916 40.9278 23.6925 41.512 23.0635 42.342C22.4346 43.172 22.1154 44.1957 22.1612 45.236C22.2069 46.2764 22.6147 47.2681 23.314 48.0397C24.0133 48.8113 24.9603 49.3144 25.9912 49.4619C27.022 49.6094 28.072 49.3921 28.9597 48.8475C29.8473 48.303 30.5169 47.4655 30.8525 46.4797C33.6906 46.0102 36.3993 44.9534 38.8054 43.3768C41.2115 41.8002 43.2619 39.7386 44.8254 37.324C45.353 37.4393 45.8914 37.4976 46.4315 37.498C46.5499 37.498 46.6686 37.4953 46.7876 37.4898C47.7935 37.4465 48.7811 37.2055 49.6939 36.7805C50.6066 36.3555 51.4268 35.7548 52.1074 35.0128C52.788 34.2708 53.3158 33.402 53.6606 32.4561C54.0054 31.5101 54.1605 30.5054 54.117 29.4995C54.0813 28.6924 54.1005 27.9713 54.1191 27.2745ZM8.35021 34.2701C7.1737 34.2181 6.06581 33.7017 5.26951 32.8341C4.47321 31.9665 4.0535 30.8185 4.10243 29.6418C4.14314 28.7202 4.12155 27.9068 4.10243 27.1891C4.08567 26.5579 4.0702 25.962 4.09652 25.3614C4.13811 24.4045 4.48758 23.4866 5.09291 22.7443C5.69823 22.002 6.52705 21.475 7.45603 21.2417C6.44037 25.4177 6.75203 29.8064 8.34763 33.7969L8.3457 33.7976C8.40843 33.9575 8.47321 34.1166 8.54002 34.2749C8.47722 34.2746 8.41395 34.273 8.35021 34.2701ZM26.6246 46.2843C26.3784 46.2843 26.1377 46.2113 25.933 46.0745C25.7283 45.9378 25.5687 45.7434 25.4744 45.5159C25.3802 45.2885 25.3555 45.0382 25.4035 44.7967C25.4515 44.5552 25.57 44.3334 25.744 44.1592C25.9181 43.9851 26.1399 43.8665 26.3813 43.8184C26.6228 43.7703 26.8731 43.7949 27.1006 43.8891C27.3281 43.9832 27.5225 44.1427 27.6594 44.3474C27.7962 44.5521 27.8693 44.7927 27.8694 45.0389V45.0413C27.8686 45.371 27.7371 45.687 27.5038 45.9199C27.2705 46.1529 26.9543 46.2839 26.6246 46.2843ZM50.8974 29.6396C50.9225 30.2229 50.8324 30.8055 50.6322 31.3541C50.432 31.9026 50.1257 32.4063 49.7307 32.8364C49.3357 33.2664 48.8599 33.6144 48.3303 33.8605C47.8008 34.1065 47.2279 34.2458 46.6445 34.2703C46.5826 34.2732 46.5209 34.2748 46.4593 34.275C46.462 34.269 46.4624 34.2623 46.4605 34.256C48.2197 30.1493 48.5998 25.5829 47.5439 21.2419C48.4733 21.4752 49.3025 22.0025 49.9078 22.7452C50.5132 23.488 50.8625 24.4064 50.9036 25.3637C50.9301 25.9619 50.9143 26.5578 50.8975 27.1888C50.8784 27.9066 50.8567 28.7201 50.8974 29.6396Z" fill="#333333"/>
<path d="M27.5143 39.0317C34.9678 39.0317 41.0316 32.9692 41.0316 25.5173C41.0276 21.9336 39.6021 18.4977 37.068 15.9636C34.5339 13.4295 31.0981 12.0041 27.5143 12C20.0625 12 14 18.0639 14 25.5173C14.0058 28.9269 15.2952 32.2094 17.6115 34.7113L16.2136 39.9264C16.1311 40.2342 16.1417 40.5597 16.2442 40.8615C16.3466 41.1634 16.5363 41.4281 16.7892 41.6221C17.0421 41.8161 17.3469 41.9307 17.665 41.9515C17.9831 41.9723 18.3002 41.8983 18.5762 41.7388L24.0434 38.5797C25.1758 38.8805 26.3426 39.0324 27.5143 39.0317ZM23.0298 35.4439L20.3345 37.0015L20.9648 34.65C21.0406 34.3673 21.0379 34.0694 20.9572 33.7881C20.8764 33.5068 20.7205 33.2528 20.5063 33.0534C19.4659 32.0941 18.6366 30.9287 18.0712 29.6313C17.5059 28.3339 17.2169 26.933 17.2227 25.5179C17.2234 23.3454 17.9118 21.229 19.1892 19.4718C20.4667 17.7147 22.2675 16.4069 24.3337 15.736C26.4 15.0652 28.6255 15.0655 30.6916 15.7371C32.7576 16.4087 34.558 17.717 35.8348 19.4747C37.1116 21.2323 37.7993 23.3489 37.7993 25.5214C37.7993 27.6938 37.1117 29.8105 35.8349 31.5681C34.5582 33.3257 32.7578 34.6341 30.6918 35.3058C28.6258 35.9774 26.4002 35.9778 24.334 35.307C24.1192 35.2371 23.892 35.2131 23.6674 35.2366C23.4427 35.2601 23.2254 35.3309 23.0298 35.4439ZM23.7496 25.3594C23.7548 25.4119 23.7573 25.4646 23.7571 25.5173C23.7573 25.5704 23.7548 25.6235 23.7496 25.6763C23.7442 25.7279 23.7356 25.7805 23.726 25.8321C23.7163 25.8836 23.7023 25.9352 23.6873 25.9857C23.6723 26.0362 23.654 26.0856 23.6336 26.1339C23.6132 26.1823 23.5906 26.2306 23.5659 26.2768C23.5412 26.323 23.5144 26.3681 23.4854 26.4121C23.4566 26.4562 23.4254 26.4985 23.3919 26.5389C23.3586 26.5808 23.3221 26.6195 23.2855 26.6571C23.248 26.6945 23.2085 26.73 23.1674 26.7634C23.1266 26.7967 23.0836 26.8279 23.0406 26.858C22.9966 26.8859 22.9515 26.9138 22.9042 26.9385C22.8582 26.9633 22.8109 26.9855 22.7624 27.0051C22.7139 27.0256 22.6645 27.0435 22.6142 27.0588C22.5637 27.0739 22.5121 27.0868 22.4605 27.0975C22.4091 27.108 22.3571 27.1159 22.3048 27.1211C22.199 27.1312 22.0926 27.1312 21.9868 27.1211C21.9345 27.1159 21.8825 27.108 21.8311 27.0975C21.7795 27.0868 21.7279 27.0739 21.6774 27.0588C21.6271 27.0435 21.5777 27.0256 21.5292 27.0051C21.4807 26.9855 21.4334 26.9633 21.3874 26.9385C21.3401 26.9138 21.295 26.8859 21.251 26.858C21.208 26.8279 21.165 26.7967 21.1242 26.7634C21.0831 26.73 21.0436 26.6945 21.0061 26.6571C20.9695 26.6195 20.933 26.5808 20.8997 26.5389C20.8662 26.4985 20.835 26.4562 20.8063 26.4121C20.7776 26.3681 20.7507 26.323 20.7257 26.2768C20.701 26.2306 20.6784 26.1823 20.658 26.1339C20.6376 26.0856 20.6204 26.0362 20.6043 25.9857C20.5882 25.9352 20.5764 25.8836 20.5656 25.8321C20.5549 25.7805 20.5474 25.7289 20.542 25.6763C20.5366 25.6237 20.5345 25.57 20.5345 25.5173C20.5345 25.4647 20.5377 25.4121 20.542 25.3594C20.5463 25.3068 20.556 25.2541 20.5656 25.2026C20.5753 25.151 20.5893 25.1005 20.6043 25.05C20.6193 24.9996 20.6376 24.9501 20.658 24.9018C20.6784 24.8535 20.701 24.8051 20.7257 24.7589C20.7753 24.6659 20.8335 24.5778 20.8997 24.4957C20.933 24.4549 20.9695 24.4152 21.0061 24.3787C21.0436 24.3412 21.0831 24.3057 21.1242 24.2723C21.165 24.239 21.208 24.2068 21.251 24.1778C21.2951 24.1486 21.3406 24.1217 21.3874 24.0972C21.4336 24.0725 21.4809 24.0499 21.5292 24.0295C21.5775 24.0102 21.628 23.9919 21.6774 23.9769C21.7279 23.9614 21.7792 23.9485 21.8311 23.9382C22.0388 23.896 22.2528 23.896 22.4605 23.9382C22.5124 23.9485 22.5637 23.9614 22.6142 23.9769C22.6636 23.9919 22.7141 24.0102 22.7624 24.0295C22.8107 24.0489 22.858 24.0725 22.9042 24.0972C22.951 24.1217 22.9965 24.1486 23.0406 24.1778C23.0836 24.2068 23.1266 24.239 23.1674 24.2723C23.2085 24.3057 23.248 24.3412 23.2855 24.3787C23.3221 24.4152 23.3586 24.4549 23.3919 24.4957C23.4581 24.5778 23.5163 24.6659 23.5659 24.7589C23.5906 24.8051 23.6132 24.8535 23.6336 24.9018C23.654 24.9501 23.6712 24.9996 23.6873 25.05C23.7034 25.1005 23.7152 25.1521 23.726 25.2026C23.7367 25.2531 23.7442 25.3068 23.7496 25.3594ZM25.9045 25.5173C25.9043 25.3058 25.9458 25.0963 26.0267 24.9008C26.1075 24.7054 26.226 24.5277 26.3755 24.3781C26.525 24.2285 26.7026 24.1097 26.898 24.0287C27.0933 23.9477 27.3028 23.906 27.5143 23.906H27.5173C27.836 23.9063 28.1473 24.001 28.4121 24.1783C28.6769 24.3555 28.8832 24.6073 29.0049 24.9017C29.1267 25.1962 29.1584 25.5201 29.096 25.8326C29.0337 26.1451 28.8801 26.432 28.6547 26.6572C28.4293 26.8824 28.1421 27.0357 27.8296 27.0978C27.5171 27.1599 27.1932 27.1279 26.8988 27.0059C26.6045 26.8839 26.3529 26.6773 26.1759 26.4124C25.999 26.1474 25.9045 25.836 25.9045 25.5173ZM31.282 25.6759C31.2768 25.623 31.2743 25.57 31.2745 25.5169C31.2743 25.4642 31.2768 25.4115 31.282 25.359C31.2874 25.3063 31.296 25.2537 31.3057 25.2022C31.3153 25.1506 31.3293 25.1001 31.3443 25.0496C31.3595 24.9992 31.3774 24.9498 31.3981 24.9014C31.4174 24.853 31.441 24.8047 31.4647 24.7585C31.5151 24.6658 31.5737 24.5777 31.6398 24.4953C31.6731 24.4545 31.7096 24.4147 31.7461 24.3782C31.7837 24.3408 31.8231 24.3053 31.8643 24.2719C31.9047 24.238 31.947 24.2064 31.991 24.1773C32.0351 24.1487 32.0802 24.1218 32.1264 24.0968C32.1726 24.0721 32.2209 24.0495 32.2692 24.0291C32.3176 24.0087 32.3681 23.9915 32.4175 23.9765C32.468 23.9609 32.5193 23.948 32.5711 23.9378C32.7266 23.9062 32.8859 23.8982 33.0438 23.9142C33.0964 23.9193 33.1488 23.9272 33.2006 23.9378C33.2521 23.9479 33.303 23.9608 33.3531 23.9765C33.4036 23.9915 33.4541 24.0098 33.5024 24.0291C33.5508 24.0484 33.598 24.0721 33.6442 24.0968C33.691 24.1213 33.7366 24.1482 33.7807 24.1773C33.8236 24.2063 33.8666 24.2386 33.9074 24.2719C33.9485 24.305 33.9876 24.3406 34.0245 24.3782C34.0621 24.4147 34.0976 24.4545 34.1319 24.4953C34.1642 24.5361 34.1964 24.5791 34.2254 24.6231C34.2545 24.6669 34.2814 24.712 34.306 24.7585C34.3307 24.8047 34.3532 24.853 34.3736 24.9014C34.3939 24.9498 34.4115 24.9993 34.4263 25.0496C34.4423 25.0996 34.4552 25.1506 34.4649 25.2022C34.476 25.2539 34.4839 25.3063 34.4886 25.359C34.4941 25.4114 34.497 25.4641 34.4972 25.5169C34.497 25.57 34.4941 25.6231 34.4886 25.6759C34.4839 25.7282 34.476 25.7802 34.4649 25.8316C34.4552 25.8836 34.4423 25.9349 34.4263 25.9853C34.4113 26.0355 34.3937 26.085 34.3736 26.1335C34.3532 26.1818 34.3307 26.2302 34.306 26.2764C34.2812 26.3226 34.2544 26.3677 34.2254 26.4117C34.1964 26.4558 34.1642 26.4987 34.1319 26.5385C34.0976 26.5804 34.0621 26.619 34.0245 26.6566C33.9876 26.6943 33.9485 26.7298 33.9074 26.763C33.8666 26.7963 33.8236 26.8274 33.7807 26.8564C33.7366 26.8859 33.6911 26.9132 33.6442 26.9381C33.5982 26.9629 33.5509 26.9851 33.5024 27.0047C33.4537 27.0253 33.4038 27.0432 33.3531 27.0584C33.3037 27.0734 33.2522 27.0863 33.2006 27.0971C33.097 27.1181 32.9915 27.1286 32.8858 27.1282C32.8328 27.1284 32.7797 27.1259 32.7269 27.1207C32.6746 27.1155 32.6226 27.1076 32.5711 27.0971C32.5195 27.0863 32.468 27.0734 32.4175 27.0584C32.3672 27.0431 32.3177 27.0251 32.2692 27.0047C32.2204 26.9851 32.1727 26.9629 32.1264 26.9381C32.0802 26.9134 32.0351 26.8854 31.991 26.8564C31.947 26.8277 31.9047 26.7965 31.8643 26.763C31.8231 26.7296 31.7837 26.6941 31.7461 26.6566C31.7096 26.619 31.6731 26.5804 31.6398 26.5385C31.6062 26.498 31.575 26.4557 31.5463 26.4117C31.5173 26.3677 31.4894 26.3226 31.4647 26.2764C31.4399 26.2302 31.4174 26.1818 31.3981 26.1335C31.3776 26.085 31.3597 26.0356 31.3443 25.9853C31.3293 25.9348 31.3164 25.8832 31.3057 25.8316C31.2949 25.7801 31.2874 25.7274 31.282 25.6759Z" fill="#D3AF37"/>
</svg>
