<svg width="90" height="90" viewBox="0 0 90 90" fill="none" xmlns="http://www.w3.org/2000/svg">
<path d="M64.3922 26.7402H54.9682V21.8435C54.9682 20.947 54.5128 20.1121 53.7592 19.6267C48.7213 16.3818 44.1642 16.5699 41.2281 17.2988C38.0865 18.0791 36.118 19.6199 35.9039 19.793C35.2848 20.2936 34.9249 21.0472 34.9249 21.8435V26.7402H25.7715C24.3153 26.7402 23.1348 27.9208 23.1348 29.377V56.4525C23.1348 57.9087 24.3153 59.0893 25.7715 59.0893H64.3924C65.8486 59.0893 67.0291 57.9087 67.0291 56.4525V29.377C67.0289 27.9208 65.8486 26.7402 64.3922 26.7402ZM40.1984 23.2944C40.8032 22.9761 41.6593 22.6053 42.6983 22.3696C45.031 21.8405 47.3785 22.1745 49.695 23.3614V26.7402H40.1986V23.2944H40.1984ZM61.7555 32.0137V38.1368L56.4951 43.6478H34.0986L28.4082 38.0838V32.0135L61.7555 32.0137ZM28.408 53.8158V45.4592L31.1803 48.1699C31.673 48.6517 32.3345 48.9214 33.0235 48.9214H57.6231C58.3438 48.9214 59.0328 48.6264 59.5304 48.1052L61.7553 45.7744V53.8158H28.408Z" fill="#EE1C25"/>
<path d="M83.1304 38.5801C83.1179 28.2871 79.157 18.6103 71.9739 11.3272C64.77 4.02275 55.1891 0 44.9962 0C34.8034 0 25.2226 4.02275 18.0184 11.3272C10.8242 18.6219 6.86206 28.3178 6.86206 38.6292C6.86206 46.7668 8.84839 54.5396 12.766 61.7319C15.8749 67.4394 20.1956 72.7813 25.6084 77.6099C34.7638 85.7769 43.8259 89.634 44.2073 89.7942C44.5341 89.9314 44.8814 90 45.2286 90C45.6141 90 45.9992 89.9156 46.3555 89.7471C55.0198 85.651 62.3464 80.4328 68.1315 74.237C72.7888 69.2492 76.4579 63.6261 79.037 57.5241C83.2923 47.4557 83.1592 39.4541 83.1304 38.5801ZM74.0762 55.7132C71.7215 61.2033 68.3834 66.2687 64.1546 70.7683C59.0905 76.1567 52.7183 80.7557 45.2005 84.4497C42.6346 83.2203 35.7688 79.6358 29.0003 73.5685C24.0707 69.1494 20.152 64.2913 17.3534 59.1289C13.8912 52.7423 12.1355 45.8452 12.1355 38.629C12.1355 20.2368 26.8769 5.27344 44.9962 5.27344C63.1158 5.27344 77.8569 20.2368 77.8569 38.6292C77.8569 38.6636 77.858 38.7049 77.8592 38.7394C77.9608 41.3228 77.3008 48.195 74.0762 55.7132Z" fill="#333333"/>
</svg>
