<svg width="90" height="90" viewBox="0 0 90 90" fill="none" xmlns="http://www.w3.org/2000/svg">
<g clip-path="url(#clip0_199_449)">
<path d="M45.0586 49.9219C47.4856 49.9219 49.4531 47.9544 49.4531 45.5273C49.4531 43.1003 47.4856 41.1328 45.0586 41.1328C42.6316 41.1328 40.6641 43.1003 40.6641 45.5273C40.6641 47.9544 42.6316 49.9219 45.0586 49.9219Z" fill="#EE1C25"/>
<path d="M63.9844 47.1094C54.7764 47.1094 47.2852 54.6006 47.2852 63.8086C47.2852 73.0165 54.7764 80.5078 63.9844 80.5078C73.1923 80.5078 80.6836 73.0165 80.6836 63.8086C80.6836 54.6006 73.1923 47.1094 63.9844 47.1094ZM63.9844 73.4766C58.6535 73.4766 54.3164 69.1395 54.3164 63.8086C54.3164 58.4777 58.6535 54.1406 63.9844 54.1406C69.3153 54.1406 73.6523 58.4777 73.6523 63.8086C73.6523 69.1395 69.3153 73.4766 63.9844 73.4766Z" fill="#333333"/>
<path d="M31.8164 15.6445C33.7581 15.6445 35.332 14.0706 35.332 12.1289C35.332 9.31816 37.6188 7.03125 40.4297 7.03125H49.5703C52.3812 7.03125 54.668 9.31816 54.668 12.1289C54.668 14.0706 56.2419 15.6445 58.1836 15.6445C60.1253 15.6445 61.6992 14.0706 61.6992 12.1289C61.6992 5.44096 56.2583 0 49.5703 0H40.4297C33.7417 0 28.3008 5.44096 28.3008 12.1289C28.3008 14.0706 29.8747 15.6445 31.8164 15.6445Z" fill="#333333"/>
<path d="M24.4336 47.1094C24.4336 45.1677 22.8596 43.5938 20.918 43.5938C18.9763 43.5938 17.4023 45.1677 17.4023 47.1094C17.4023 57.6744 25.9975 66.2695 36.5625 66.2695C38.5042 66.2695 40.0781 64.6956 40.0781 62.7539C40.0781 60.8122 38.5042 59.2383 36.5625 59.2383C29.8746 59.2383 24.4336 53.7973 24.4336 47.1094Z" fill="#EE1C25"/>
<path d="M68.9062 22.5H21.0938C9.46266 22.5 0 31.9627 0 43.5938V68.9062C0 80.5373 9.46266 90 21.0938 90H49.5703C51.512 90 53.0859 88.4261 53.0859 86.4844C53.0859 84.5427 51.512 82.9688 49.5703 82.9688H21.0938C13.3397 82.9688 7.03125 76.6603 7.03125 68.9062V43.5938C7.03125 35.8397 13.3397 29.5312 21.0938 29.5312H68.9062C76.6603 29.5312 82.9688 35.8397 82.9688 43.5938V48.3398C82.9688 50.2815 84.5427 51.8555 86.4844 51.8555C88.4261 51.8555 90 50.2815 90 48.3398V43.5938C90 31.9627 80.5373 22.5 68.9062 22.5Z" fill="#333333"/>
<path d="M84.0484 79.0764C82.6753 77.7034 80.4494 77.7034 79.0766 79.0764C77.7037 80.4494 77.7036 82.6755 79.0766 84.0484L83.9985 88.9702C84.6849 89.6569 85.5845 90 86.4844 90C87.3842 90 88.2838 89.6569 88.9703 88.9704C90.3433 87.5974 90.3433 85.3713 88.9703 83.9985L84.0484 79.0764Z" fill="#333333"/>
</g>
<defs>
<clipPath id="clip0_199_449">
<rect width="90" height="90" fill="white"/>
</clipPath>
</defs>
</svg>
