<svg width="55" height="55" viewBox="0 0 55 55" fill="none" xmlns="http://www.w3.org/2000/svg">
<path d="M27.5 40.6691C28.4492 40.6691 29.2188 39.8996 29.2188 38.9503C29.2188 38.0011 28.4492 37.2316 27.5 37.2316C26.5508 37.2316 25.7812 38.0011 25.7812 38.9503C25.7812 39.8996 26.5508 40.6691 27.5 40.6691Z" fill="#333333"/>
<path d="M38.8763 53.2812H16.1252L21.2832 42.9688H33.7149L38.8763 53.2812ZM21.6871 49.8438H33.311L31.5906 46.4062H23.4076L21.6871 49.8438Z" fill="#333333"/>
<path d="M42.9688 49.8438H12.0312C11.082 49.8438 10.3125 50.6133 10.3125 51.5625C10.3125 52.5117 11.082 53.2812 12.0312 53.2812H42.9688C43.918 53.2812 44.6875 52.5117 44.6875 51.5625C44.6875 50.6133 43.918 49.8438 42.9688 49.8438Z" fill="#333333"/>
<path d="M44.6875 46.4062H10.3125C5.57391 46.4062 1.71875 42.5511 1.71875 37.8125V10.3125C1.71875 5.57391 5.57391 1.71875 10.3125 1.71875H44.6875C49.4261 1.71875 53.2812 5.57391 53.2812 10.3125V37.8125C53.2812 42.5511 49.4261 46.4062 44.6875 46.4062ZM10.3125 5.15625C7.46969 5.15625 5.15625 7.46969 5.15625 10.3125V37.8125C5.15625 40.6553 7.46969 42.9688 10.3125 42.9688H44.6875C47.5303 42.9688 49.8438 40.6553 49.8438 37.8125V10.3125C49.8438 7.46969 47.5303 5.15625 44.6875 5.15625H10.3125Z" fill="#333333"/>
<path d="M33.6222 10.5617L39.9438 9.91542C41.1744 9.78995 42.2744 10.6854 42.3999 11.916L43.0461 18.2376C43.1424 19.1812 42.4549 20.0251 41.5113 20.1214C40.5677 20.2176 39.7238 19.5301 39.6275 18.5865L39.1033 13.456L33.9728 13.9803C33.0292 14.0765 32.1853 13.389 32.0891 12.4454C31.9928 11.5018 32.6786 10.6579 33.6222 10.5617Z" fill="#D3AF37"/>
<path d="M12.5279 26.7747C11.8146 26.1474 11.7459 25.0611 12.3732 24.3479L19.2998 16.4743C20.2279 15.419 21.5668 14.7985 22.9745 14.7761H23.0587C24.4354 14.7761 25.7606 15.3485 26.7059 16.3522L29.2668 19.0765C29.5676 19.3961 29.9715 19.5715 30.4081 19.5715H30.4167C30.8584 19.5697 31.2657 19.3893 31.5648 19.0644L38.7217 11.2699L41.2534 13.5954L34.0965 21.3899C33.1581 22.4126 31.8243 23.0021 30.4373 23.0107C29.064 22.9626 27.7113 22.4435 26.7626 21.4329L24.2017 18.7104C23.894 18.3838 23.521 18.2291 23.0312 18.2154C22.5843 18.2222 22.177 18.4113 21.8813 18.7482L14.9548 26.6218C14.3274 27.3351 13.2412 27.4038 12.5279 26.7765V26.7747Z" fill="#D3AF37"/>
<path d="M3.4375 31.4944H51.5625V34.9319H3.4375V31.4944Z" fill="#333333"/>
</svg>
