<svg width="45" height="45" viewBox="0 0 45 45" fill="none" xmlns="http://www.w3.org/2000/svg">
<circle cx="22.5" cy="22.5" r="22.5" fill="#FFECE9"/>
<g clip-path="url(#clip0_553_1640)">
<path d="M22.5 28.4858C22.9315 28.4858 23.2812 28.1361 23.2812 27.7046C23.2812 27.2731 22.9315 26.9233 22.5 26.9233C22.0685 26.9233 21.7188 27.2731 21.7188 27.7046C21.7188 28.1361 22.0685 28.4858 22.5 28.4858Z" fill="#333333"/>
<path d="M27.671 34.2188H17.3296L19.6741 29.5312H25.3249L27.671 34.2188ZM19.8577 32.6562H25.1413L24.3593 31.0938H20.6397L19.8577 32.6562Z" fill="#333333"/>
<path d="M29.5312 32.6562H15.4688C15.0373 32.6562 14.6875 33.006 14.6875 33.4375C14.6875 33.869 15.0373 34.2188 15.4688 34.2188H29.5312C29.9627 34.2188 30.3125 33.869 30.3125 33.4375C30.3125 33.006 29.9627 32.6562 29.5312 32.6562Z" fill="#333333"/>
<path d="M30.3125 31.0938H14.6875C12.5336 31.0938 10.7812 29.3414 10.7812 27.1875V14.6875C10.7812 12.5336 12.5336 10.7812 14.6875 10.7812H30.3125C32.4664 10.7812 34.2188 12.5336 34.2188 14.6875V27.1875C34.2188 29.3414 32.4664 31.0938 30.3125 31.0938ZM14.6875 12.3438C13.3953 12.3438 12.3438 13.3953 12.3438 14.6875V27.1875C12.3438 28.4797 13.3953 29.5312 14.6875 29.5312H30.3125C31.6047 29.5312 32.6562 28.4797 32.6562 27.1875V14.6875C32.6562 13.3953 31.6047 12.3438 30.3125 12.3438H14.6875Z" fill="#333333"/>
<path d="M25.2827 14.8005L28.1562 14.5068C28.7156 14.4498 29.2156 14.8568 29.2726 15.4162L29.5663 18.2896C29.6101 18.7185 29.2976 19.1021 28.8687 19.1459C28.4398 19.1896 28.0562 18.8771 28.0124 18.4482L27.7742 16.1162L25.4421 16.3545C25.0132 16.3982 24.6296 16.0857 24.5859 15.6568C24.5421 15.2279 24.8538 14.8443 25.2827 14.8005Z" fill="#EE1C25"/>
<path d="M15.6945 22.1702C15.3702 21.8851 15.339 21.3913 15.6241 21.0671L18.7726 17.4882C19.1945 17.0085 19.803 16.7265 20.4429 16.7163H20.4812C21.107 16.7163 21.7093 16.9765 22.139 17.4327L23.3031 18.671C23.4398 18.8163 23.6234 18.896 23.8218 18.896H23.8257C24.0265 18.8952 24.2116 18.8132 24.3476 18.6655L27.6007 15.1226L28.7515 16.1796L25.4984 19.7226C25.0718 20.1874 24.4656 20.4554 23.8351 20.4593C23.2109 20.4374 22.596 20.2015 22.1648 19.7421L21.0007 18.5046C20.8609 18.3562 20.6913 18.2858 20.4687 18.2796C20.2655 18.2827 20.0804 18.3687 19.946 18.5218L16.7976 22.1007C16.5124 22.4249 16.0187 22.4562 15.6945 22.171V22.1702Z" fill="#EE1C25"/>
<path d="M11.5625 24.3154H33.4375V25.8779H11.5625V24.3154Z" fill="#333333"/>
</g>
<defs>
<clipPath id="clip0_553_1640">
<rect width="25" height="25" fill="white" transform="translate(10 10)"/>
</clipPath>
</defs>
</svg>
