<svg width="45" height="45" viewBox="0 0 45 45" fill="none" xmlns="http://www.w3.org/2000/svg">
<circle cx="22.5" cy="22.5" r="22.5" fill="#FFECE9"/>
<path d="M30.0729 14.6089C28.4547 13.0518 26.4265 12.0447 24.2166 11.6983C23.6853 11.6082 23.141 11.565 22.5052 11.5635C22.5033 11.5635 22.5019 11.5625 22.5 11.5625C22.4987 11.5625 22.4977 11.5632 22.4964 11.5632C22.4895 11.5632 22.4837 11.5625 22.4767 11.5625C21.8851 11.5625 21.3155 11.6083 20.7933 11.6968C18.5735 12.0447 16.5453 13.0518 14.9305 14.6059C14.594 14.9255 14.2698 15.2811 13.9688 15.6595C12.3945 17.6202 11.5625 19.9854 11.5625 22.5C11.5625 25.0146 12.3945 27.3798 13.9665 29.3375C15.6388 31.4374 18.132 32.9014 20.7861 33.3002C21.2518 33.3826 21.7561 33.4291 22.2845 33.4375H22.2974C22.7228 33.4375 23.0714 33.0957 23.0783 32.6692C23.0852 32.2374 22.7411 31.8819 22.3096 31.875C21.9642 31.8697 21.6377 31.8396 21.3203 31.796C20.5537 30.9552 19.9066 30.0308 19.3685 29.0291C20.2227 28.814 21.0843 28.6824 21.9381 28.6478C22.3695 28.6302 22.7045 28.2663 22.6869 27.8352C22.6694 27.4042 22.3013 27.0624 21.8748 27.0868C20.8184 27.1298 19.7532 27.3033 18.6958 27.5917C18.6358 27.4421 18.5646 27.3006 18.5091 27.1478C18.4869 27.099 18.4694 27.0509 18.4366 26.9441C18.432 26.9312 18.4267 26.9167 18.4206 26.9006C18.0316 25.7325 17.8104 24.5177 17.7421 23.2812H22.5C22.9314 23.2812 23.2812 22.9318 23.2812 22.5V17.902C24.2957 17.8467 25.3003 17.6835 26.2827 17.4155C26.3668 17.6426 26.4566 17.8793 26.5386 18.1108C26.8217 18.9645 27.0208 19.8671 27.1303 20.7948C27.1772 21.1923 27.5148 21.4845 27.905 21.4845C27.9359 21.4845 27.9668 21.483 27.9977 21.4792C28.4261 21.4288 28.7325 21.0405 28.6821 20.6117C28.5593 19.5711 28.3346 18.5571 28.0069 17.5768C27.9364 17.3578 27.8437 17.1412 27.7676 16.9276C28.328 16.707 28.8717 16.4456 29.398 16.152C29.5395 16.3066 29.6782 16.4682 29.8128 16.6376C30.9977 18.1136 31.691 19.8568 31.8426 21.7188H30.4845C30.0531 21.7188 29.7033 22.0682 29.7033 22.5C29.7033 22.9318 30.0531 23.2812 30.4845 23.2812H31.8382C31.8231 23.464 31.8063 23.6478 31.7804 23.8412C31.7232 24.2693 32.0238 24.6622 32.4514 24.7194C32.8752 24.7736 33.2723 24.476 33.3292 24.0488C33.402 23.5025 33.4375 22.9959 33.4375 22.5C33.4375 19.9854 32.6055 17.6202 31.0335 15.6625C30.7302 15.2811 30.406 14.9255 30.0729 14.6089ZM27.1267 15.4773C26.9803 15.1943 26.8323 14.9163 26.6695 14.6494C26.5207 14.3911 26.3613 14.1368 26.1948 13.8857C26.8908 14.1836 27.5469 14.5672 28.1543 15.0287C27.8211 15.1953 27.4768 15.3414 27.1267 15.4773ZM21.7188 13.1562V16.3357C20.9281 16.2874 20.1417 16.1627 19.3683 15.9681C19.9002 14.9723 20.5454 14.0466 21.3106 13.2066C21.4453 13.1888 21.5758 13.168 21.7188 13.1562ZM17.8605 15.4714C17.5187 15.3376 17.1809 15.1934 16.8477 15.0271C17.4525 14.5677 18.1067 14.1854 18.8016 13.8879C18.4578 14.3968 18.141 14.9228 17.8605 15.4714ZM18.4362 18.0757C18.4968 17.8471 18.6116 17.6341 18.7001 17.4084C19.693 17.6797 20.7036 17.8454 21.7188 17.9014V21.7188H17.7428C17.8128 20.4847 18.0389 19.2622 18.4362 18.0757ZM15.1895 16.6345C15.3257 16.4632 15.4774 16.3179 15.6223 16.1604C16.1405 16.4466 16.671 16.7009 17.213 16.9167C17.1193 17.1517 17.0081 17.3525 16.9447 17.6088C16.4995 18.9471 16.251 20.3263 16.1801 21.7188H13.1574C13.309 19.8568 14.0026 18.1132 15.1895 16.6345ZM18.8055 31.1118C18.1119 30.8143 17.458 30.4315 16.8528 29.9713C17.1806 29.8074 17.5171 29.6637 17.86 29.5283C18.1418 30.0759 18.4597 30.6022 18.8055 31.1118ZM16.9466 27.4202C17.0291 27.6827 17.1187 27.8681 17.2176 28.1046C16.6655 28.3259 16.1325 28.5775 15.6204 28.8621C15.4662 28.6954 15.3201 28.5296 15.1872 28.3624C14.0023 26.8864 13.309 25.1432 13.1574 23.2812H16.1798C16.2501 24.6951 16.4994 26.0851 16.9466 27.4202ZM23.2812 13.1586C23.418 13.1699 23.5512 13.1896 23.6855 13.2073C24.3107 13.9062 24.8661 14.6496 25.3252 15.4459C25.4326 15.6221 25.5219 15.7986 25.6171 15.974C24.8507 16.1656 24.0692 16.2895 23.2812 16.337V13.1586Z" fill="#333333"/>
<path d="M32.3023 26.6376L26.7866 22.7756C26.3785 22.4902 25.8646 22.446 25.4122 22.6558C24.9602 22.8664 24.6645 23.289 24.6206 23.7865L24.0339 30.4935C23.9809 31.0969 24.3063 31.6417 24.8625 31.8812C25.4179 32.1185 26.0382 31.9835 26.441 31.5303L26.8313 31.0901L27.5545 32.6411C27.7884 33.1424 28.2873 33.4369 28.8073 33.4369C29.0022 33.4369 29.2002 33.3957 29.3883 33.3079L31.0164 32.5488C31.3505 32.3932 31.6042 32.117 31.7301 31.7706C31.8564 31.4242 31.84 31.0496 31.6843 30.7147L30.9611 29.1644L31.5493 29.1484C32.1547 29.1316 32.6582 28.7456 32.8325 28.1657C33.0065 27.5851 32.7986 26.9855 32.3023 26.6376ZM27.149 28.9088C27.1116 28.9035 27.0739 28.9004 27.0365 28.9004C26.8149 28.9004 26.6016 28.995 26.4521 29.1629L25.6384 30.0799L26.1496 24.2366L30.9542 27.6012L29.7289 27.6347C29.4657 27.6424 29.2238 27.7812 29.0857 28.0055C28.9473 28.2291 28.9309 28.5075 29.0423 28.7463L30.1912 31.2099L28.8935 31.8149L27.7445 29.3513C27.6335 29.1133 27.4096 28.9462 27.149 28.9088Z" fill="#EE1C25"/>
</svg>
