<svg width="45" height="45" viewBox="0 0 45 45" fill="none" xmlns="http://www.w3.org/2000/svg">
<circle cx="22.5" cy="22.5" r="22.5" fill="#FFECE9"/>
<path fill-rule="evenodd" clip-rule="evenodd" d="M12.3438 14.6875C12.3438 13.3931 13.3931 12.3438 14.6875 12.3438H30.3125C31.607 12.3438 32.6562 13.3931 32.6562 14.6875V22.5C32.6562 22.9315 32.3065 23.2812 31.875 23.2812C31.4435 23.2812 31.0938 22.9315 31.0938 22.5V14.6875C31.0938 14.256 30.744 13.9062 30.3125 13.9062H14.6875C14.256 13.9062 13.9062 14.256 13.9062 14.6875V30.3125C13.9062 30.744 14.256 31.0938 14.6875 31.0938H22.5C22.9315 31.0938 23.2812 31.4435 23.2812 31.875C23.2812 32.3065 22.9315 32.6562 22.5 32.6562H14.6875C13.3931 32.6562 12.3438 31.607 12.3438 30.3125V14.6875Z" fill="#333333"/>
<path fill-rule="evenodd" clip-rule="evenodd" d="M30.3389 26.4062C30.7703 26.4062 31.1201 26.756 31.1201 27.1875V32.3958C31.1201 32.8273 30.7703 33.1771 30.3389 33.1771C29.9074 33.1771 29.5576 32.8273 29.5576 32.3958V27.1875C29.5576 26.756 29.9074 26.4062 30.3389 26.4062Z" fill="#333333"/>
<path fill-rule="evenodd" clip-rule="evenodd" d="M26.927 29.7656C26.927 29.3341 27.2768 28.9844 27.7083 28.9844H32.9166C33.348 28.9844 33.6978 29.3341 33.6978 29.7656C33.6978 30.1971 33.348 30.5469 32.9166 30.5469H27.7083C27.2768 30.5469 26.927 30.1971 26.927 29.7656Z" fill="#333333"/>
<path fill-rule="evenodd" clip-rule="evenodd" d="M22.4999 17.5522C21.4931 17.5522 20.677 18.3684 20.677 19.3752C20.677 20.3819 21.4931 21.1981 22.4999 21.1981C23.5067 21.1981 24.3228 20.3819 24.3228 19.3752C24.3228 18.3684 23.5067 17.5522 22.4999 17.5522ZM19.1145 19.3752C19.1145 17.5054 20.6302 15.9897 22.4999 15.9897C24.3696 15.9897 25.8853 17.5054 25.8853 19.3752C25.8853 21.2449 24.3696 22.7606 22.4999 22.7606C20.6302 22.7606 19.1145 21.2449 19.1145 19.3752Z" fill="#EE1C25"/>
<path fill-rule="evenodd" clip-rule="evenodd" d="M17.0312 26.1457C17.0312 23.329 19.5687 21.1978 22.5 21.1978C25.4312 21.1978 27.9688 23.329 27.9688 26.1457C27.9688 26.5771 27.619 26.9269 27.1875 26.9269C26.756 26.9269 26.4062 26.5771 26.4062 26.1457C26.4062 24.3599 24.7465 22.7603 22.5 22.7603C20.2536 22.7603 18.5938 24.3599 18.5938 26.1457C18.5938 26.5771 18.244 26.9269 17.8125 26.9269C17.381 26.9269 17.0312 26.5771 17.0312 26.1457Z" fill="#EE1C25"/>
</svg>
