<svg width="45" height="45" viewBox="0 0 45 45" fill="none" xmlns="http://www.w3.org/2000/svg">
<circle cx="22.5" cy="22.5" r="22.5" fill="#FFECE9"/>
<path d="M34.5995 22.3977C34.6075 22.0979 34.6157 21.788 34.6014 21.4654C34.5627 20.5639 34.1758 19.7126 33.522 19.0908C32.8683 18.4689 31.9987 18.125 31.0964 18.1314C29.6483 14.8184 26.34 12.4971 22.4992 12.4971C18.6584 12.4971 15.3514 14.8184 13.9033 18.1314C13.0012 18.125 12.1319 18.4688 11.4782 19.0904C10.8245 19.712 10.4374 20.563 10.3985 21.4643C10.3841 21.7881 10.3924 22.098 10.4003 22.3978C10.4088 22.7145 10.4175 23.042 10.4012 23.41C10.3624 24.3326 10.6911 25.233 11.3152 25.9136C11.9393 26.5943 12.8078 26.9996 13.7303 27.0409C13.7849 27.0434 13.8394 27.0447 13.8938 27.0447C14.3536 27.045 14.8088 26.953 15.2325 26.7742C15.4094 26.7 15.5502 26.5592 15.6243 26.3822C15.6984 26.2052 15.7 26.0062 15.6286 25.828C15.6198 25.7935 15.6062 25.7603 15.5884 25.7293C14.9322 24.5505 14.5878 23.2237 14.5879 21.8746C14.5879 17.5115 18.1369 13.9619 22.4992 13.9619C26.8615 13.9619 30.4119 17.5117 30.4119 21.8746C30.417 23.7213 29.7739 25.5114 28.5947 26.9327C27.4155 28.354 25.7749 29.3164 23.9589 29.6522C23.7676 29.2193 23.4311 28.8667 23.0074 28.6556C22.5838 28.4444 22.0997 28.3879 21.6388 28.4958C21.1779 28.6037 20.7692 28.8693 20.4833 29.2466C20.1974 29.6238 20.0524 30.0891 20.0731 30.562C20.0939 31.0349 20.2793 31.4857 20.5972 31.8364C20.915 32.1871 21.3455 32.4158 21.814 32.4828C22.2826 32.5499 22.7599 32.4511 23.1634 32.2036C23.5669 31.9561 23.8712 31.5754 24.0238 31.1273C25.3138 30.9139 26.545 30.4335 27.6387 29.7169C28.7324 29.0003 29.6644 28.0632 30.3751 26.9656C30.6149 27.018 30.8596 27.0446 31.1051 27.0447C31.1589 27.0447 31.2129 27.0435 31.267 27.041C31.7242 27.0213 32.1731 26.9118 32.588 26.7186C33.0029 26.5254 33.3757 26.2524 33.6851 25.9151C33.9944 25.5778 34.2343 25.1829 34.3911 24.7529C34.5478 24.3229 34.6183 23.8663 34.5985 23.409C34.5823 23.0422 34.591 22.7144 34.5995 22.3977ZM13.7954 25.5775C13.2607 25.5539 12.7571 25.3191 12.3951 24.9248C12.0332 24.5304 11.8424 24.0086 11.8646 23.4737C11.8831 23.0548 11.8733 22.6851 11.8646 22.3588C11.857 22.072 11.85 21.8011 11.8619 21.5281C11.8809 21.0931 12.0397 20.6759 12.3148 20.3385C12.59 20.0011 12.9667 19.7615 13.389 19.6555C12.9273 21.5537 13.069 23.5485 13.7943 25.3624L13.7934 25.3627C13.8219 25.4354 13.8513 25.5077 13.8817 25.5797C13.8532 25.5796 13.8244 25.5788 13.7954 25.5775ZM22.102 31.0385C21.9901 31.0385 21.8807 31.0053 21.7876 30.9431C21.6945 30.881 21.622 30.7926 21.5792 30.6892C21.5363 30.5858 21.5251 30.4721 21.5469 30.3623C21.5687 30.2525 21.6226 30.1517 21.7017 30.0726C21.7808 29.9934 21.8816 29.9395 21.9914 29.9176C22.1012 29.8958 22.2149 29.907 22.3183 29.9498C22.4217 29.9925 22.5101 30.0651 22.5723 30.1581C22.6345 30.2511 22.6678 30.3605 22.6678 30.4724V30.4735C22.6674 30.6234 22.6077 30.767 22.5016 30.8729C22.3956 30.9788 22.2519 31.0383 22.102 31.0385ZM33.1351 23.4727C33.1465 23.7379 33.1055 24.0027 33.0145 24.252C32.9235 24.5014 32.7843 24.7303 32.6048 24.9258C32.4252 25.1213 32.2089 25.2795 31.9682 25.3913C31.7275 25.5031 31.4671 25.5664 31.2019 25.5776C31.1738 25.5789 31.1457 25.5796 31.1178 25.5797C31.119 25.577 31.1192 25.5739 31.1183 25.5711C31.9179 23.7044 32.0907 21.6288 31.6108 19.6556C32.0332 19.7616 32.4101 20.0013 32.6853 20.3389C32.9605 20.6765 33.1192 21.094 33.1379 21.5292C33.1499 21.801 33.1428 22.0719 33.1351 22.3587C33.1264 22.685 33.1166 23.0548 33.1351 23.4727Z" fill="#333333"/>
<path d="M22.5064 27.7417C25.8943 27.7417 28.6506 24.986 28.6506 21.5988C28.6488 19.9698 28.0009 18.4081 26.849 17.2562C25.6971 16.1044 24.1354 15.4564 22.5064 15.4546C19.1192 15.4546 16.3635 18.2109 16.3635 21.5988C16.3662 23.1486 16.9522 24.6407 18.0051 25.7779L17.3697 28.1484C17.3322 28.2883 17.337 28.4363 17.3836 28.5735C17.4302 28.7107 17.5164 28.831 17.6314 28.9192C17.7463 29.0074 17.8849 29.0595 18.0294 29.0689C18.174 29.0784 18.3182 29.0447 18.4436 28.9722L20.9287 27.5363C21.4435 27.673 21.9738 27.7421 22.5064 27.7417ZM20.468 26.1109L19.2428 26.8189L19.5293 25.75C19.5638 25.6216 19.5626 25.4861 19.5259 25.3583C19.4892 25.2304 19.4183 25.115 19.3209 25.0243C18.848 24.5883 18.4711 24.0585 18.2141 23.4688C17.9571 22.8791 17.8258 22.2423 17.8284 21.5991C17.8287 20.6116 18.1416 19.6496 18.7223 18.8509C19.3029 18.0522 20.1215 17.4577 21.0607 17.1528C21.9999 16.8478 23.0115 16.848 23.9506 17.1533C24.8897 17.4586 25.7081 18.0532 26.2884 18.8522C26.8688 19.6511 27.1814 20.6132 27.1814 21.6007C27.1814 22.5881 26.8688 23.5503 26.2885 24.3492C25.7081 25.1481 24.8898 25.7428 23.9507 26.0481C23.0116 26.3534 22 26.3536 21.0608 26.0487C20.9631 26.0169 20.8599 26.006 20.7578 26.0167C20.6557 26.0274 20.5569 26.0596 20.468 26.1109ZM20.7952 21.5271C20.7975 21.5509 20.7987 21.5749 20.7986 21.5988C20.7987 21.623 20.7975 21.6471 20.7952 21.6711C20.7927 21.6945 20.7888 21.7185 20.7844 21.7419C20.78 21.7653 20.7737 21.7888 20.7668 21.8117C20.76 21.8347 20.7517 21.8571 20.7424 21.8791C20.7332 21.9011 20.7229 21.923 20.7117 21.944C20.7004 21.965 20.6882 21.9855 20.675 22.0056C20.662 22.0256 20.6478 22.0448 20.6326 22.0632C20.6174 22.0822 20.6008 22.0998 20.5842 22.1169C20.5671 22.1339 20.5492 22.15 20.5305 22.1652C20.512 22.1804 20.4924 22.1945 20.4729 22.2082C20.4529 22.2209 20.4324 22.2336 20.4109 22.2448C20.39 22.2561 20.3685 22.2662 20.3464 22.2751C20.3244 22.2844 20.3019 22.2925 20.2791 22.2995C20.2561 22.3063 20.2327 22.3122 20.2092 22.3171C20.1858 22.3219 20.1622 22.3254 20.1384 22.3278C20.0904 22.3324 20.042 22.3324 19.9939 22.3278C19.9701 22.3254 19.9465 22.3219 19.9231 22.3171C19.8997 22.3122 19.8762 22.3063 19.8533 22.2995C19.8304 22.2925 19.8079 22.2844 19.7859 22.2751C19.7639 22.2662 19.7423 22.2561 19.7214 22.2448C19.7 22.2336 19.6794 22.2209 19.6594 22.2082C19.6399 22.1945 19.6204 22.1804 19.6018 22.1652C19.5831 22.15 19.5652 22.1339 19.5481 22.1169C19.5315 22.0998 19.5149 22.0822 19.4998 22.0632C19.4845 22.0448 19.4703 22.0256 19.4573 22.0056C19.4443 21.9855 19.432 21.965 19.4207 21.944C19.4094 21.923 19.3992 21.9011 19.3899 21.8791C19.3806 21.8571 19.3728 21.8347 19.3655 21.8117C19.3582 21.7888 19.3528 21.7653 19.3479 21.7419C19.343 21.7185 19.3396 21.695 19.3372 21.6711C19.3347 21.6472 19.3337 21.6228 19.3337 21.5988C19.3337 21.5749 19.3352 21.551 19.3372 21.5271C19.3391 21.5031 19.3435 21.4792 19.3479 21.4558C19.3523 21.4323 19.3586 21.4094 19.3655 21.3864C19.3723 21.3635 19.3806 21.341 19.3899 21.319C19.3992 21.2971 19.4094 21.2751 19.4207 21.2541C19.4432 21.2118 19.4697 21.1718 19.4998 21.1345C19.5149 21.1159 19.5315 21.0979 19.5481 21.0813C19.5652 21.0642 19.5831 21.0481 19.6018 21.0329C19.6204 21.0178 19.6399 21.0031 19.6594 20.9899C19.6795 20.9767 19.7002 20.9645 19.7214 20.9533C19.7424 20.9421 19.7639 20.9318 19.7859 20.9226C19.8079 20.9138 19.8308 20.9055 19.8533 20.8986C19.8762 20.8916 19.8995 20.8857 19.9231 20.8811C20.0175 20.8619 20.1148 20.8619 20.2092 20.8811C20.2328 20.8857 20.2561 20.8916 20.2791 20.8986C20.3015 20.9055 20.3245 20.9138 20.3464 20.9226C20.3684 20.9313 20.3899 20.9421 20.4109 20.9533C20.4322 20.9645 20.4529 20.9767 20.4729 20.9899C20.4924 21.0031 20.512 21.0178 20.5305 21.0329C20.5492 21.0481 20.5671 21.0642 20.5842 21.0813C20.6008 21.0979 20.6174 21.1159 20.6326 21.1345C20.6626 21.1718 20.6891 21.2118 20.7117 21.2541C20.7229 21.2751 20.7332 21.2971 20.7424 21.319C20.7517 21.341 20.7595 21.3635 20.7668 21.3864C20.7742 21.4094 20.7795 21.4328 20.7844 21.4558C20.7893 21.4787 20.7927 21.5031 20.7952 21.5271ZM21.7747 21.5988C21.7746 21.5027 21.7935 21.4075 21.8302 21.3186C21.8669 21.2298 21.9208 21.149 21.9888 21.081C22.0567 21.013 22.1374 20.959 22.2262 20.9222C22.315 20.8854 22.4102 20.8664 22.5064 20.8664H22.5078C22.6526 20.8665 22.7941 20.9096 22.9145 20.9902C23.0348 21.0707 23.1286 21.1852 23.1839 21.319C23.2393 21.4529 23.2537 21.6001 23.2253 21.7421C23.197 21.8842 23.1272 22.0146 23.0247 22.117C22.9223 22.2193 22.7918 22.289 22.6497 22.3172C22.5077 22.3454 22.3604 22.3309 22.2266 22.2754C22.0928 22.22 21.9785 22.1261 21.898 22.0057C21.8176 21.8852 21.7747 21.7437 21.7747 21.5988ZM24.219 21.6709C24.2166 21.6469 24.2155 21.6228 24.2156 21.5986C24.2155 21.5747 24.2166 21.5507 24.219 21.5269C24.2214 21.5029 24.2253 21.479 24.2297 21.4556C24.2341 21.4321 24.2405 21.4092 24.2473 21.3862C24.2542 21.3633 24.2624 21.3408 24.2717 21.3188C24.2805 21.2969 24.2913 21.2749 24.302 21.2539C24.3249 21.2118 24.3516 21.1717 24.3816 21.1343C24.3967 21.1157 24.4133 21.0977 24.4299 21.0811C24.447 21.064 24.4649 21.0479 24.4836 21.0327C24.502 21.0173 24.5213 21.003 24.5413 20.9897C24.5613 20.9767 24.5818 20.9645 24.6028 20.9531C24.6238 20.9419 24.6458 20.9316 24.6677 20.9224C24.6897 20.9131 24.7126 20.9053 24.7351 20.8984C24.7581 20.8914 24.7814 20.8855 24.8049 20.8809C24.8756 20.8665 24.948 20.8629 25.0198 20.8701C25.0437 20.8725 25.0675 20.8761 25.0911 20.8809C25.1145 20.8855 25.1376 20.8913 25.1604 20.8984C25.1833 20.9053 25.2063 20.9136 25.2283 20.9224C25.2502 20.9312 25.2717 20.9419 25.2927 20.9531C25.314 20.9643 25.3347 20.9765 25.3547 20.9897C25.3743 21.0029 25.3938 21.0176 25.4124 21.0327C25.431 21.0478 25.4488 21.0639 25.4656 21.0811C25.4827 21.0977 25.4988 21.1157 25.5144 21.1343C25.5291 21.1528 25.5437 21.1724 25.5569 21.1924C25.5701 21.2123 25.5823 21.2328 25.5935 21.2539C25.6047 21.2749 25.615 21.2969 25.6243 21.3188C25.6335 21.3409 25.6415 21.3633 25.6482 21.3862C25.6555 21.409 25.6614 21.4321 25.6658 21.4556C25.6708 21.4791 25.6744 21.5029 25.6765 21.5269C25.679 21.5507 25.6803 21.5747 25.6804 21.5986C25.6803 21.6228 25.679 21.6469 25.6765 21.6709C25.6744 21.6947 25.6708 21.7183 25.6658 21.7417C25.6614 21.7653 25.6555 21.7886 25.6482 21.8115C25.6414 21.8344 25.6334 21.8569 25.6243 21.8789C25.615 21.9009 25.6047 21.9229 25.5935 21.9438C25.5823 21.9648 25.5701 21.9854 25.5569 22.0054C25.5437 22.0254 25.5291 22.0449 25.5144 22.063C25.4988 22.082 25.4827 22.0996 25.4656 22.1167C25.4488 22.1338 25.431 22.15 25.4124 22.165C25.3938 22.1802 25.3743 22.1943 25.3547 22.2075C25.3347 22.2209 25.314 22.2333 25.2927 22.2446C25.2718 22.2559 25.2503 22.266 25.2283 22.2749C25.2061 22.2843 25.1835 22.2924 25.1604 22.2993C25.1379 22.3062 25.1145 22.312 25.0911 22.3169C25.044 22.3265 24.996 22.3312 24.948 22.3311C24.9239 22.3311 24.8997 22.33 24.8757 22.3276C24.852 22.3253 24.8283 22.3217 24.8049 22.3169C24.7815 22.312 24.7581 22.3062 24.7351 22.2993C24.7122 22.2923 24.6898 22.2842 24.6677 22.2749C24.6455 22.266 24.6239 22.2559 24.6028 22.2446C24.5818 22.2334 24.5613 22.2207 24.5413 22.2075C24.5213 22.1945 24.502 22.1803 24.4836 22.165C24.4649 22.1498 24.447 22.1337 24.4299 22.1167C24.4133 22.0996 24.3967 22.082 24.3816 22.063C24.3663 22.0446 24.3522 22.0254 24.3391 22.0054C24.3259 21.9854 24.3132 21.9648 24.302 21.9438C24.2908 21.9229 24.2805 21.9009 24.2717 21.8789C24.2624 21.8569 24.2543 21.8344 24.2473 21.8115C24.2405 21.7886 24.2346 21.7651 24.2297 21.7417C24.2249 21.7183 24.2214 21.6943 24.219 21.6709Z" fill="#EE1C25"/>
</svg>
