<svg width="100" height="100" viewBox="0 0 100 100" fill="none" xmlns="http://www.w3.org/2000/svg">
<g clip-path="url(#clip0_589_45)">
<path d="M50 53.3302C48.159 53.3302 46.6667 51.8379 46.6667 49.9969V34.9969C46.6667 33.1559 48.159 31.6636 50 31.6636C51.8411 31.6636 53.3334 33.1559 53.3334 34.9969V49.9969C53.3334 51.8379 51.8411 53.3302 50 53.3302Z" fill="#EE1C25"/>
<path d="M37.0134 60.8301C35.1723 60.8301 33.68 59.3376 33.6802 57.4965C33.6802 56.3057 34.3154 55.2055 35.3467 54.6101L48.3334 47.1101C49.9338 46.2001 51.9688 46.7599 52.8786 48.3601C53.78 49.9455 53.24 51.9609 51.6667 52.8834L38.6767 60.3834C38.1713 60.6763 37.5975 60.8303 37.0134 60.8301Z" fill="#EE1C25"/>
<path d="M62.9867 60.8305C62.4015 60.8314 61.8265 60.6772 61.32 60.3839L48.3333 52.8839C46.7452 51.9528 46.2125 49.9107 47.1433 48.3224C48.0656 46.7491 50.0813 46.2091 51.6667 47.1105L64.6567 54.6105C66.2508 55.5311 66.7971 57.5697 65.8765 59.1641C65.2811 60.1953 64.1806 60.8305 62.99 60.8305H62.9867Z" fill="#EE1C25"/>
<path d="M96.6667 99.9967C94.8256 99.9967 93.3334 98.5044 93.3334 96.6634C93.3269 90.3674 89.3925 84.744 83.48 82.5801C81.7494 81.9526 80.855 80.0407 81.4827 78.3101C81.6898 77.7388 82.0492 77.2353 82.5217 76.8534C85.3863 74.5403 85.8334 70.343 83.52 67.4784C81.2069 64.6138 77.0096 64.1667 74.145 66.4801C71.2804 68.7932 70.8334 72.9905 73.1467 75.8551C73.4431 76.2224 73.7779 76.5569 74.145 76.8534C75.5771 78.0103 75.8002 80.109 74.6434 81.5411C74.2615 82.0138 73.7579 82.373 73.1867 82.5801C67.2742 84.744 63.3398 90.3674 63.3334 96.6634C63.3334 98.5044 61.8411 99.9967 60 99.9967C58.159 99.9967 56.6667 98.5044 56.6667 96.6634C56.6771 89.2236 60.4934 82.3063 66.7817 78.3301C63.1042 71.9503 65.295 63.7971 71.6748 60.1199C78.0546 56.4424 86.2077 58.6332 89.885 65.013C92.2606 69.1342 92.2606 74.2088 89.885 78.3301C96.1738 82.3059 99.9902 89.2234 100 96.6634C100 98.5044 98.5077 99.9967 96.6667 99.9967Z" fill="#333333"/>
<path d="M40 99.9967C38.159 99.9967 36.6667 98.5044 36.6667 96.6634C36.6602 90.3674 32.7258 84.744 26.8133 82.5801C25.0827 81.9526 24.1883 80.0407 24.816 78.3101C25.0231 77.7388 25.3825 77.2353 25.855 76.8534C28.7196 74.5403 29.1667 70.343 26.8533 67.4784C24.54 64.6138 20.3429 64.1667 17.4783 66.4801C14.6138 68.7932 14.1667 72.9905 16.48 75.8551C16.7765 76.2224 17.1113 76.5569 17.4783 76.8534C18.9104 78.0103 19.1335 80.109 17.9767 81.5411C17.5948 82.0138 17.0912 82.373 16.52 82.5801C10.6075 84.744 6.67313 90.3674 6.66667 96.6634C6.66667 98.5044 5.17438 99.9967 3.33333 99.9967C1.49229 99.9967 0 98.5044 0 96.6634C0.0104167 89.2236 3.82667 82.3063 10.115 78.3301C6.4375 71.9503 8.62833 63.7971 15.0081 60.1199C21.3879 56.4424 29.541 58.6332 33.2183 65.013C35.594 69.1342 35.594 74.2088 33.2183 78.3301C39.5071 82.3059 43.3235 89.2234 43.3333 96.6634C43.3333 98.5044 41.841 99.9967 40 99.9967Z" fill="#333333"/>
<path d="M68.3333 41.6636C66.4923 41.6636 65 40.1713 65 38.3303C64.9935 32.0343 61.0592 26.4109 55.1467 24.247C53.416 23.6195 52.5216 21.7076 53.1494 19.977C53.3564 19.4057 53.7158 18.9022 54.1883 18.5203C57.0529 16.2072 57.5 12.0099 55.1866 9.14529C52.8735 6.28071 48.6762 5.83384 45.8116 8.14696C42.9471 10.4601 42.5002 14.6574 44.8133 17.522C45.1098 17.8893 45.4446 18.2238 45.8116 18.5203C47.2437 19.6772 47.4669 21.7759 46.31 23.208C45.9281 23.6807 45.4246 24.0399 44.8533 24.247C38.9408 26.4109 35.0064 32.0343 35 38.3303C35 40.1713 33.5077 41.6636 31.6666 41.6636C29.8256 41.6636 28.3333 40.1713 28.3333 38.3303C28.3437 30.8905 32.16 23.9732 38.4483 19.997C34.7708 13.6172 36.9616 5.46404 43.3414 1.78675C49.7212 -1.89054 57.8744 0.300085 61.5516 6.67988C63.9273 10.8011 63.9273 15.8757 61.5516 19.997C67.8404 23.9728 71.6569 30.8903 71.6666 38.3303C71.6666 40.1713 70.1744 41.6636 68.3333 41.6636Z" fill="#333333"/>
</g>
<defs>
<clipPath id="clip0_589_45">
<rect width="100" height="100" fill="white"/>
</clipPath>
</defs>
</svg>
