<svg width="100" height="100" viewBox="0 0 100 100" fill="none" xmlns="http://www.w3.org/2000/svg">
<g clip-path="url(#clip0_589_23)">
<path d="M99.607 34.0768L80.7787 1.4649C79.9689 0.0621613 78.1756 -0.414792 76.7767 0.39263L65.9062 6.6688C64.5049 7.47779 64.0248 9.26939 64.834 10.6708L65.0652 11.0711L10.5428 49.5167C9.30448 50.3899 8.93632 52.0633 9.69394 53.3758L9.79823 53.5565L1.46542 58.3676C0.0642479 59.1766 -0.416026 60.9682 0.393154 62.3696L6.66933 73.2411C7.47401 74.6354 9.26327 75.1264 10.6713 74.3133L19.0039 69.5026L19.108 69.6829C19.8705 71.0036 21.5076 71.5092 22.8746 70.8772L39.7146 63.0911C40.5221 64.3057 41.5393 65.369 42.7131 66.2309L31.5658 96.0434C30.9992 97.5591 31.7684 99.2469 33.2838 99.8137C34.7994 100.381 36.4873 99.6112 37.0541 98.0958L48.1289 68.4772C48.7393 68.5706 49.3639 68.62 50 68.62C50.6361 68.62 51.2611 68.5715 51.8715 68.4782L62.9459 98.0958C63.5123 99.6112 65.1998 100.381 66.7162 99.8137C68.2316 99.2471 69.0008 97.5591 68.4342 96.0434L57.2871 66.2311C60.3504 63.9829 62.3439 60.3587 62.3439 56.2762C62.3439 55.0889 62.1721 53.9419 61.8578 52.8546L83.4312 42.8825L83.6623 43.2827C84.4658 44.6743 86.2535 45.1698 87.6643 44.3549L98.5348 38.0788C99.9359 37.2698 100.416 35.4782 99.607 34.0768ZM10.2789 67.7743L6.93222 61.977L12.7281 58.6307L16.0748 64.4278L10.2789 67.7743ZM50 62.7604C46.4244 62.7604 43.5156 59.8514 43.5156 56.2762C43.5156 52.7006 46.4246 49.7919 50 49.7919C53.5754 49.7919 56.4844 52.7008 56.4844 56.2762C56.4844 59.8516 53.5756 62.7604 50 62.7604ZM58.9199 47.7571C56.6709 45.4032 53.5049 43.9325 50 43.9325C43.1936 43.9325 37.6562 49.47 37.6562 56.2762C37.6562 56.7087 37.6791 57.1358 37.7227 57.5567L22.8445 64.4356L16.106 52.7633L68.0072 16.1663L80.4896 37.7868L58.9199 47.7571ZM87.2715 37.8157L71.373 10.2782L77.1693 6.93169L93.0678 34.4692L87.2715 37.8157Z" fill="#333333"/>
<circle cx="50" cy="56.4453" r="9.58594" stroke="#EE1C25" stroke-width="7"/>
</g>
<defs>
<clipPath id="clip0_589_23">
<rect width="100" height="100" fill="white"/>
</clipPath>
</defs>
</svg>
