<svg width="100" height="100" viewBox="0 0 100 100" fill="none" xmlns="http://www.w3.org/2000/svg">
<path d="M46.875 6.25C46.875 4.52423 45.4773 3.125 43.75 3.125C21.3501 3.125 3.125 21.3486 3.125 43.75C3.125 66.1514 21.3501 84.375 43.75 84.375C45.4773 84.375 46.875 82.9758 46.875 81.25V6.25ZM28.2043 46.875H40.625V77.2903C34.6069 74.2264 28.8818 62.6984 28.2043 46.875ZM40.625 10.2097V40.625H28.2043C28.8818 24.8016 34.6069 13.2736 40.625 10.2097ZM29.6783 12.4283C25.2808 19.2093 22.406 29.1916 21.9574 40.625H9.52454C10.6659 28.0334 18.634 17.4103 29.6783 12.4283ZM9.52454 46.875H21.9574C22.406 58.3084 25.2808 68.2907 29.6783 75.0717C18.634 70.0897 10.6659 59.4666 9.52454 46.875Z" fill="#333333"/>
<path d="M95.9595 47.789C95.3735 47.2046 94.577 46.875 93.75 46.875C93.4479 46.875 91.2018 46.8933 87.9578 47.1329C89.6729 44.2703 90.625 40.9576 90.625 37.5C90.625 28.1418 83.728 20.3873 74.7559 18.9941C73.3643 10.022 65.6067 3.125 56.25 3.125C54.5227 3.125 53.125 4.52423 53.125 6.25C53.125 7.97577 54.5227 9.375 56.25 9.375C63.1439 9.375 68.75 14.9826 68.75 21.875C68.75 23.6008 70.1477 25 71.875 25C78.7689 25 84.375 30.6076 84.375 37.5C84.375 41.9922 81.9519 46.1044 78.0426 48.3643C71.5332 49.5239 64.3707 51.5884 59.375 55.2856V45.0439L67.8345 36.5845C69.0552 35.3638 69.0552 33.3862 67.8345 32.1655C66.6138 30.9448 64.6362 30.9448 63.4155 32.1655L59.375 36.2061V18.75C59.375 17.0242 57.9773 15.625 56.25 15.625C54.5227 15.625 53.125 17.0242 53.125 18.75V63.3041C49.5117 71.8933 51.6174 82.37 52.7374 86.5936L47.7905 91.5405C46.5698 92.7612 46.5698 94.7388 47.7905 95.9595C48.4009 96.5698 49.2004 96.875 50 96.875C50.7996 96.875 51.5991 96.5698 52.2095 95.9595L57.1594 91.011C59.6283 91.6656 64.2426 92.6727 69.3848 92.6727C76.77 92.6727 82.5592 90.6235 86.5875 86.5814C96.759 76.3763 96.875 51.0727 96.875 50C96.875 49.1714 96.5454 48.3765 95.9595 47.789ZM82.1625 82.1686C79.3488 84.9915 75.0488 86.4227 69.3848 86.4227C66.8427 86.4227 64.4196 86.1237 62.4054 85.7651L70.0439 78.125H78.125C79.8523 78.125 81.25 76.7258 81.25 75C81.25 73.2742 79.8523 71.875 78.125 71.875H76.2939L80.3345 67.8345C81.5552 66.6138 81.5552 64.6362 80.3345 63.4155C79.1138 62.1948 77.1362 62.1948 75.9155 63.4155L71.875 67.4561V65.625C71.875 63.8992 70.4773 62.5 68.75 62.5C67.0227 62.5 65.625 63.8992 65.625 65.625V73.7061L57.9865 81.3446C56.9183 75.2197 56.6986 66.4688 61.5845 61.5845C67.5781 55.5908 82.3944 53.6377 90.5334 53.2181C90.1245 61.3419 88.1805 76.1307 82.1625 82.1686Z" fill="#EE1C25"/>
</svg>
