<svg width="35" height="35" viewBox="0 0 35 35" fill="none" xmlns="http://www.w3.org/2000/svg">
<circle cx="17.5" cy="17.5" r="17.5" fill="#D3AF37"/>
<path d="M27.8283 12.9632C27.5641 12.6992 23.5815 8.79294 23.121 8.3322C22.8922 8.10334 22.5212 8.10326 22.2924 8.33201C21.5416 9.08232 20.5521 10.0717 20.5521 10.0717C20.5349 10.0888 20.5193 10.1073 20.5045 10.1263C19.6718 9.94943 18.7877 10.0314 17.9935 10.3806C17.2997 10.0779 16.5205 9.97009 15.7674 10.0771C15.6731 10.0905 15.58 10.1077 15.4877 10.1273C15.4531 10.0828 15.5894 10.2212 13.6989 8.33189C13.4701 8.10318 13.0991 8.10322 12.8703 8.33212C12.4103 8.79228 8.43261 12.7025 8.17171 12.9632C7.94284 13.1919 7.94269 13.5634 8.17171 13.7922C8.57901 14.1992 9.03276 14.5995 9.70233 15.2564C9.50979 15.8575 9.64448 16.5501 10.1323 17.0379L10.5378 17.4434L10.1229 17.8583C9.43593 18.5453 9.43585 19.6571 10.1229 20.3442C10.441 20.6623 10.8517 20.8325 11.269 20.8553C11.2919 21.2727 11.4621 21.6834 11.7802 22.0015C12.0893 22.3106 12.4933 22.4902 12.9264 22.5136C12.9494 22.9306 13.1196 23.3409 13.4375 23.6588C13.7556 23.9769 14.1663 24.1471 14.5836 24.1699C14.6064 24.5872 14.7766 24.998 15.0947 25.316C15.7817 26.003 16.8936 26.0031 17.5806 25.316L17.9867 24.91L18.401 25.3244C19.0879 26.0113 20.1999 26.0114 20.8869 25.3244C21.196 25.0153 21.3756 24.6113 21.399 24.1781C21.816 24.1551 22.2263 23.9849 22.5442 23.6671C22.8621 23.3492 23.0322 22.9389 23.0553 22.5218C23.4884 22.4985 23.8924 22.3189 24.2015 22.0098C24.5193 21.6919 24.6895 21.2816 24.7125 20.8645C25.1457 20.8412 25.5496 20.6616 25.8587 20.3525C26.5458 19.6655 26.5458 18.5535 25.8587 17.8665L25.4445 17.4522L25.8588 17.0378C26.347 16.5496 26.481 15.8569 26.2889 15.2565C26.9601 14.5997 27.4201 14.2 27.8282 13.7921C28.0572 13.5634 28.0573 13.192 27.8283 12.9632ZM18.2759 11.5458C19.3601 10.9718 20.7673 11.1179 21.7156 12.0661L25.0287 15.3792C25.2578 15.6082 25.2593 15.9803 25.0302 16.2093L24.6159 16.6236L21.7156 13.7234C20.5706 12.5784 18.7174 12.5782 17.5724 13.7234L16.7437 14.552C16.5147 14.781 16.1441 14.781 15.9151 14.552C15.6867 14.3235 15.6866 13.9518 15.9151 13.7234C17.7524 11.8861 17.7636 11.8243 18.2759 11.5458ZM10.3912 14.2913C10.0037 13.9144 9.69241 13.6257 9.42464 13.373C10.3339 12.477 12.3901 10.4545 13.2828 9.57294C13.6125 9.90247 13.9461 10.2359 14.1963 10.4861L10.3912 14.2913ZM11.7801 19.5156C11.5516 19.7441 11.1799 19.7441 10.9514 19.5156C10.7224 19.2866 10.7225 18.916 10.9515 18.6869L12.6004 17.038C12.8288 16.8096 13.2006 16.8096 13.429 17.038C13.6581 17.267 13.6581 17.6376 13.429 17.8666L11.7801 19.5156ZM13.4374 21.1729C13.2084 21.4019 12.8379 21.4019 12.6088 21.1729C12.3803 20.9444 12.3803 20.5727 12.6088 20.3442L14.2578 18.6953C14.4863 18.4668 14.858 18.4669 15.0864 18.6953C15.3149 18.9238 15.3149 19.2955 15.0864 19.5239L13.4374 21.1729ZM15.0947 22.8301C14.8663 23.0586 14.4945 23.0585 14.2661 22.8301C14.0376 22.6017 14.0376 22.23 14.2661 22.0015L15.9151 20.3526C16.1441 20.1235 16.5146 20.1235 16.7437 20.3526C16.9727 20.5816 16.9727 20.9522 16.7437 21.1812L15.0947 22.8301ZM18.401 22.8386L16.752 24.4875C16.523 24.7165 16.1524 24.7165 15.9234 24.4874C15.695 24.259 15.695 23.8873 15.9234 23.6588L17.5724 22.0099L17.5725 22.0098C17.801 21.7814 18.1724 21.7815 18.4009 22.0098L18.401 22.0099L18.4012 22.0101C18.6295 22.2386 18.6294 22.6102 18.401 22.8386ZM20.0582 24.4958C19.8293 24.7248 19.4587 24.7248 19.2296 24.4958L18.8153 24.0815L19.2296 23.6671C19.3749 23.5219 19.489 23.3572 19.5727 23.1815L20.0582 23.6671C20.2873 23.8962 20.2873 24.2668 20.0582 24.4958ZM25.0302 19.5239C24.8011 19.7529 24.4305 19.753 24.2015 19.5239L22.5443 17.8667C22.3155 17.6378 21.9445 17.6378 21.7156 17.8667C21.4868 18.0955 21.4868 18.4665 21.7156 18.6953L23.3729 20.3526C23.6013 20.581 23.6013 20.9528 23.3729 21.1812C23.1439 21.4102 22.7733 21.4102 22.5443 21.1812L20.887 19.5239C20.6582 19.2951 20.2872 19.2951 20.0583 19.5239C19.8295 19.7528 19.8295 20.1237 20.0583 20.3526L21.7156 22.0098C21.9441 22.2383 21.9441 22.61 21.7156 22.8385C21.4872 23.0669 21.1154 23.0669 20.8869 22.8385L19.2297 21.1812C18.9118 20.8633 18.5015 20.6931 18.0845 20.6701C18.0611 20.2369 17.8815 19.833 17.5724 19.5239C17.2633 19.2148 16.8593 19.0352 16.4262 19.0118C16.4032 18.5948 16.233 18.1845 15.9151 17.8666C15.606 17.5575 15.2021 17.3779 14.7689 17.3546C14.7459 16.9375 14.5757 16.5272 14.2578 16.2093C13.5724 15.524 12.4573 15.524 11.7719 16.2093L11.3665 16.6148L10.961 16.2093C10.7321 15.9804 10.7333 15.6083 10.9625 15.3793L14.2756 12.0661C14.9433 11.3986 15.8588 11.1074 16.7488 11.2326C16.7472 11.2343 16.7454 11.2359 16.7438 11.2375L15.0865 12.8948C14.4011 13.5801 14.4012 14.6953 15.0865 15.3807C15.7735 16.0677 16.8854 16.0678 17.5725 15.3807L18.4011 14.5521C19.0881 13.8651 20.2 13.865 20.8871 14.5521L25.0303 18.6953C25.2592 18.9244 25.2591 19.2949 25.0302 19.5239ZM25.6002 14.2916L21.795 10.4861C22.0454 10.2358 22.3789 9.90239 22.7086 9.57279C23.6203 10.4715 25.6648 12.4781 26.574 13.3724C26.3024 13.6267 25.9879 13.9159 25.6002 14.2916Z" fill="white"/>
</svg>
