<svg width="35" height="35" viewBox="0 0 35 35" fill="none" xmlns="http://www.w3.org/2000/svg">
<circle cx="17.5" cy="17.5" r="17.5" fill="#FFECE9"/>
<path d="M26.9963 16.9998L28 13.7079H25.3905C25.3404 13.6453 24.2111 12.4864 24.2111 12.4864L22.9866 10.1338L20.371 9.69484L17.9977 8.51074L15.6234 9.6925L13.0086 10.1314L11.7799 12.4811C11.7799 12.4811 10.6476 13.6437 10.5965 13.7078H8L8.95441 16.9998L8 20.2917H10.5983C10.6484 20.3542 11.7777 21.5132 11.7777 21.5132L13.0022 23.8657L15.6178 24.3047L17.9911 25.4888L20.3653 24.307L22.9802 23.8682L24.2089 21.5185C24.2089 21.5185 25.3411 20.3558 25.3922 20.2917H28L26.9963 16.9998ZM12.7337 13.1745L13.7736 11.1858L15.9878 10.8142L17.9971 9.8141L20.0061 10.8164L22.2202 11.188L23.2564 13.179L23.7749 13.7079H22.2689C22.1279 13.5255 21.9746 13.3509 21.8089 13.1852C20.79 12.1663 19.4353 11.6051 17.9944 11.6051C16.5534 11.6051 15.1987 12.1662 14.1798 13.1852C14.0141 13.3509 13.8608 13.5255 13.7198 13.7079H12.2108L12.7337 13.1745ZM20.9841 19.9895C20.1855 20.7881 19.1237 21.2279 17.9944 21.2279C16.8651 21.2279 15.8033 20.7881 15.0047 19.9895C14.2061 19.1909 13.7663 18.1291 13.7663 16.9998C13.7663 15.8704 14.2061 14.8086 15.0047 14.01C15.8033 13.2115 16.8651 12.7716 17.9944 12.7716C19.1237 12.7716 20.1855 13.2114 20.9842 14.01C21.7827 14.8086 22.2226 15.8704 22.2226 16.9998C22.2225 18.1291 21.7827 19.1909 20.9841 19.9895ZM9.55277 14.8743H13.0334C12.7493 15.5371 12.5998 16.2569 12.5998 16.9998C12.5998 17.7426 12.7493 18.4624 13.0334 19.1252H9.55277L10.169 16.9998L9.55277 14.8743ZM23.2551 20.8251L22.2152 22.8137L20.001 23.1853L17.9917 24.1854L15.9827 23.1831L13.7686 22.8116L12.7324 20.8205L12.2139 20.2917H13.689V20.2512C13.8384 20.4482 14.002 20.6365 14.1799 20.8143C15.1988 21.8331 16.5536 22.3944 17.9945 22.3944C19.4354 22.3944 20.7902 21.8333 21.8091 20.8143C21.9747 20.6487 22.128 20.474 22.2691 20.2917H23.778L23.2551 20.8251ZM26.4248 19.1252H22.9555C23.2396 18.4624 23.3891 17.7426 23.3891 16.9998C23.3891 16.2569 23.2395 15.5371 22.9555 14.8743H26.4248L25.7768 16.9998L26.4248 19.1252Z" fill="#EE1C25"/>
<path d="M17.3226 17.5453L16.3383 16.561L15.5134 17.3858L17.3226 19.1949L20.4754 16.0421L19.6506 15.2173L17.3226 17.5453Z" fill="#EE1C25"/>
</svg>
