<svg width="35" height="35" viewBox="0 0 35 35" fill="none" xmlns="http://www.w3.org/2000/svg">
<circle cx="17.5" cy="17.5" r="17.5" fill="#D3AF37"/>
<path d="M26.9963 17L28 13.7081H25.3905C25.3404 13.6456 24.2111 12.4866 24.2111 12.4866L22.9866 10.134L20.371 9.69509L17.9977 8.51099L15.6234 9.69274L13.0086 10.1316L11.7799 12.4813C11.7799 12.4813 10.6476 13.644 10.5965 13.7081H8L8.95441 17L8 20.2919H10.5983C10.6484 20.3545 11.7777 21.5134 11.7777 21.5134L13.0022 23.866L15.6178 24.3049L17.9911 25.489L20.3653 24.3073L22.9802 23.8684L24.2089 21.5187C24.2089 21.5187 25.3411 20.3561 25.3922 20.292H28L26.9963 17ZM12.7337 13.1747L13.7736 11.1861L15.9878 10.8145L17.9971 9.81435L20.0061 10.8167L22.2202 11.1882L23.2564 13.1792L23.7749 13.7081H22.2689C22.1279 13.5258 21.9746 13.3511 21.8089 13.1854C20.79 12.1665 19.4353 11.6054 17.9944 11.6054C16.5534 11.6054 15.1987 12.1665 14.1798 13.1854C14.0141 13.3511 13.8608 13.5258 13.7198 13.7081H12.2108L12.7337 13.1747ZM20.9841 19.9897C20.1855 20.7883 19.1237 21.2281 17.9944 21.2281C16.8651 21.2281 15.8033 20.7883 15.0047 19.9897C14.2061 19.1911 13.7663 18.1293 13.7663 17C13.7663 15.8706 14.2061 14.8088 15.0047 14.0103C15.8033 13.2117 16.8651 12.7719 17.9944 12.7719C19.1237 12.7719 20.1855 13.2117 20.9842 14.0103C21.7827 14.8089 22.2226 15.8707 22.2226 17C22.2225 18.1294 21.7827 19.1912 20.9841 19.9897ZM9.55277 14.8746H13.0334C12.7493 15.5374 12.5998 16.2572 12.5998 17C12.5998 17.7429 12.7493 18.4626 13.0334 19.1254H9.55277L10.169 17L9.55277 14.8746ZM23.2551 20.8253L22.2152 22.814L20.001 23.1856L17.9917 24.1857L15.9827 23.1834L13.7686 22.8118L12.7324 20.8208L12.2139 20.2919H13.689V20.2514C13.8384 20.4484 14.002 20.6367 14.1799 20.8146C15.1988 21.8334 16.5536 22.3947 17.9945 22.3947C19.4354 22.3947 20.7902 21.8335 21.8091 20.8146C21.9747 20.6489 22.128 20.4743 22.2691 20.2919H23.778L23.2551 20.8253ZM26.4248 19.1254H22.9555C23.2396 18.4626 23.3891 17.7429 23.3891 17C23.3891 16.2572 23.2395 15.5374 22.9555 14.8746H26.4248L25.7768 17L26.4248 19.1254Z" fill="white"/>
<path d="M17.3226 17.5453L16.3383 16.561L15.5134 17.3858L17.3226 19.1949L20.4754 16.0421L19.6506 15.2173L17.3226 17.5453Z" fill="white"/>
</svg>
