<svg width="35" height="35" viewBox="0 0 35 35" fill="none" xmlns="http://www.w3.org/2000/svg">
<circle cx="17.5" cy="17.5" r="17.5" fill="#FFECE9"/>
<path d="M18.0384 8.71436L17.9934 8.71452C16.3489 8.7261 14.7979 9.37645 13.6263 10.5457C12.4547 11.715 11.8013 13.2647 11.7866 14.9092C11.7709 16.6648 12.5002 18.3566 13.7873 19.5507C14.241 19.9716 14.5012 20.5605 14.5012 21.1665V24.5506H15.7655V24.6573C15.7655 25.9105 16.7851 26.9302 18.0384 26.9302C19.2917 26.9302 20.3113 25.9105 20.3113 24.6573V24.5506H21.5756V21.159C21.5756 20.5552 21.8305 19.9739 22.275 19.5641C23.5558 18.3834 24.2904 16.7076 24.2904 14.9664C24.2904 11.519 21.4857 8.71436 18.0384 8.71436ZM19.0709 24.6572C19.0709 25.2266 18.6077 25.6898 18.0383 25.6898C17.469 25.6898 17.0057 25.2266 17.0057 24.6572V24.5506H19.0709V24.6572H19.0709ZM15.7415 23.3103V21.7867H20.3351V23.3103H15.7415ZM21.4342 18.6521C20.8878 19.1558 20.5238 19.8246 20.3911 20.5463H18.6585V18.3893L20.3442 17.3051V15.4383H19.1039V16.6281L18.0384 17.3134L16.9729 16.6281V15.4383H15.7325V17.3051L17.4182 18.3893V20.5463H15.6838C15.5488 19.8244 15.1814 19.1521 14.6309 18.6414C13.5989 17.6841 13.0143 16.3278 13.0269 14.9203C13.0512 12.2015 15.2832 9.97401 18.0021 9.95482L18.0383 9.9547C20.8018 9.9547 23.05 12.2029 23.05 14.9663C23.0501 16.3621 22.4611 17.7056 21.4342 18.6521Z" fill="#EE1C25"/>
</svg>
