<svg width="35" height="35" viewBox="0 0 35 35" fill="none" xmlns="http://www.w3.org/2000/svg">
<circle cx="17.5" cy="17.5" r="17.5" fill="#FFECE9"/>
<path d="M27.8283 12.9629C27.5641 12.699 23.5815 8.7927 23.121 8.33196C22.8922 8.10309 22.5212 8.10301 22.2924 8.33176C21.5416 9.08207 20.5521 10.0714 20.5521 10.0714C20.5349 10.0886 20.5193 10.1071 20.5045 10.1261C19.6718 9.94918 18.7877 10.0312 17.9935 10.3804C17.2997 10.0777 16.5205 9.96985 15.7674 10.0769C15.6731 10.0903 15.58 10.1075 15.4877 10.1271C15.4531 10.0825 15.5894 10.221 13.6989 8.33165C13.4701 8.10293 13.0991 8.10297 12.8703 8.33188C12.4103 8.79203 8.43261 12.7022 8.17171 12.963C7.94284 13.1917 7.94269 13.5631 8.17171 13.7919C8.57901 14.199 9.03276 14.5993 9.70233 15.2561C9.50979 15.8573 9.64448 16.5499 10.1323 17.0377L10.5378 17.4432L10.1229 17.858C9.43593 18.545 9.43585 19.6569 10.1229 20.344C10.441 20.6621 10.8517 20.8323 11.269 20.8551C11.2919 21.2724 11.4621 21.6831 11.7802 22.0013C12.0893 22.3104 12.4933 22.49 12.9264 22.5133C12.9494 22.9304 13.1196 23.3407 13.4375 23.6585C13.7556 23.9767 14.1663 24.1469 14.5836 24.1697C14.6064 24.587 14.7766 24.9977 15.0947 25.3158C15.7817 26.0028 16.8936 26.0029 17.5806 25.3158L17.9867 24.9098L18.401 25.3241C19.0879 26.0111 20.1999 26.0112 20.8869 25.3241C21.196 25.015 21.3756 24.6111 21.399 24.1779C21.816 24.1549 22.2263 23.9847 22.5442 23.6668C22.8621 23.349 23.0322 22.9386 23.0553 22.5216C23.4884 22.4982 23.8924 22.3186 24.2015 22.0095C24.5193 21.6917 24.6895 21.2813 24.7125 20.8643C25.1457 20.8409 25.5496 20.6613 25.8587 20.3522C26.5458 19.6652 26.5458 18.5533 25.8587 17.8663L25.4445 17.452L25.8588 17.0376C26.347 16.5494 26.481 15.8566 26.2889 15.2563C26.9601 14.5995 27.4201 14.1998 27.8282 13.7919C28.0572 13.5632 28.0573 13.1918 27.8283 12.9629ZM18.2759 11.5455C19.3601 10.9715 20.7673 11.1177 21.7156 12.0659L25.0287 15.379C25.2578 15.608 25.2593 15.98 25.0302 16.2091L24.6159 16.6234L21.7156 13.7231C20.5706 12.5781 18.7174 12.578 17.5724 13.7231L16.7437 14.5518C16.5147 14.7807 16.1441 14.7808 15.9151 14.5518C15.6867 14.3233 15.6866 13.9516 15.9151 13.7231C17.7524 11.8858 17.7636 11.824 18.2759 11.5455ZM10.3912 14.291C10.0037 13.9141 9.69241 13.6254 9.42464 13.3727C10.3339 12.4768 12.3901 10.4543 13.2828 9.5727C13.6125 9.90223 13.9461 10.2357 14.1963 10.4859L10.3912 14.291ZM11.7801 19.5153C11.5516 19.7438 11.1799 19.7438 10.9514 19.5153C10.7224 19.2863 10.7225 18.9158 10.9515 18.6867L12.6004 17.0378C12.8288 16.8093 13.2006 16.8093 13.429 17.0378C13.6581 17.2668 13.6581 17.6373 13.429 17.8664L11.7801 19.5153ZM13.4374 21.1726C13.2084 21.4017 12.8379 21.4017 12.6088 21.1727C12.3803 20.9442 12.3803 20.5725 12.6088 20.344L14.2578 18.6951C14.4863 18.4666 14.858 18.4667 15.0864 18.6951C15.3149 18.9235 15.3149 19.2953 15.0864 19.5237L13.4374 21.1726ZM15.0947 22.8299C14.8663 23.0583 14.4945 23.0583 14.2661 22.8299C14.0376 22.6015 14.0376 22.2297 14.2661 22.0013L15.9151 20.3523C16.1441 20.1233 16.5146 20.1233 16.7437 20.3523C16.9727 20.5814 16.9727 20.9519 16.7437 21.181L15.0947 22.8299ZM18.401 22.8383L16.752 24.4873C16.523 24.7162 16.1524 24.7162 15.9234 24.4872C15.695 24.2587 15.695 23.887 15.9234 23.6586L17.5724 22.0096L17.5725 22.0095C17.801 21.7812 18.1724 21.7812 18.4009 22.0095L18.401 22.0097L18.4012 22.0099C18.6295 22.2383 18.6294 22.6099 18.401 22.8383ZM20.0582 24.4956C19.8293 24.7245 19.4587 24.7246 19.2296 24.4956L18.8153 24.0812L19.2296 23.6669C19.3749 23.5217 19.489 23.357 19.5727 23.1813L20.0582 23.6669C20.2873 23.896 20.2873 24.2665 20.0582 24.4956ZM25.0302 19.5237C24.8011 19.7527 24.4305 19.7527 24.2015 19.5237L22.5443 17.8664C22.3155 17.6376 21.9445 17.6376 21.7156 17.8664C21.4868 18.0953 21.4868 18.4662 21.7156 18.6951L23.3729 20.3523C23.6013 20.5808 23.6013 20.9525 23.3729 21.181C23.1439 21.4099 22.7733 21.41 22.5443 21.181L20.887 19.5237C20.6582 19.2949 20.2872 19.2949 20.0583 19.5237C19.8295 19.7525 19.8295 20.1235 20.0583 20.3523L21.7156 22.0096C21.9441 22.2381 21.9441 22.6098 21.7156 22.8382C21.4872 23.0667 21.1154 23.0667 20.8869 22.8382L19.2297 21.1809C18.9118 20.8631 18.5015 20.6929 18.0845 20.6699C18.0611 20.2367 17.8815 19.8328 17.5724 19.5237C17.2633 19.2146 16.8593 19.0349 16.4262 19.0116C16.4032 18.5946 16.233 18.1842 15.9151 17.8664C15.606 17.5573 15.2021 17.3777 14.7689 17.3543C14.7459 16.9373 14.5757 16.5269 14.2578 16.2091C13.5724 15.5238 12.4573 15.5238 11.7719 16.2091L11.3665 16.6146L10.961 16.2091C10.7321 15.9801 10.7333 15.6081 10.9625 15.379L14.2756 12.0659C14.9433 11.3983 15.8588 11.1071 16.7488 11.2324C16.7472 11.234 16.7454 11.2356 16.7438 11.2373L15.0865 12.8945C14.4011 13.5799 14.4012 14.6951 15.0865 15.3805C15.7735 16.0675 16.8854 16.0675 17.5725 15.3805L18.4011 14.5518C19.0881 13.8648 20.2 13.8648 20.8871 14.5518L25.0303 18.6951C25.2592 18.9241 25.2591 19.2947 25.0302 19.5237ZM25.6002 14.2913L21.795 10.4859C22.0454 10.2356 22.3789 9.90215 22.7086 9.57254C23.6203 10.4713 25.6648 12.4779 26.574 13.3721C26.3024 13.6265 25.9879 13.9156 25.6002 14.2913Z" fill="#EE1C25"/>
</svg>
