<svg width="35" height="35" viewBox="0 0 35 35" fill="none" xmlns="http://www.w3.org/2000/svg">
<circle cx="17.5" cy="17.5" r="17.5" fill="#FFECE9"/>
<g clip-path="url(#clip0_729_1215)">
<path d="M17.9999 17.6659C17.6317 17.6659 17.3333 17.3674 17.3333 16.9992V13.9992C17.3333 13.631 17.6317 13.3325 17.9999 13.3325C18.3681 13.3325 18.6666 13.631 18.6666 13.9992V16.9992C18.6666 17.3674 18.3681 17.6659 17.9999 17.6659Z" fill="#EE1C25"/>
<path d="M15.4027 19.1662C15.0345 19.1662 14.736 18.8677 14.7361 18.4995C14.7361 18.2613 14.8631 18.0413 15.0694 17.9222L17.6667 16.4222C17.9868 16.2402 18.3938 16.3522 18.5758 16.6722C18.756 16.9893 18.648 17.3924 18.3334 17.5769L15.7354 19.0769C15.6343 19.1355 15.5195 19.1663 15.4027 19.1662Z" fill="#EE1C25"/>
<path d="M20.5974 19.1662C20.4804 19.1664 20.3654 19.1355 20.2641 19.0769L17.6668 17.5769C17.3492 17.3907 17.2426 16.9822 17.4288 16.6646C17.6132 16.3499 18.0164 16.2419 18.3334 16.4222L20.9314 17.9222C21.2503 18.1063 21.3595 18.514 21.1754 18.8329C21.0563 19.0392 20.8362 19.1662 20.5981 19.1662H20.5974Z" fill="#EE1C25"/>
<path d="M27.3333 26.9992C26.965 26.9992 26.6666 26.7007 26.6666 26.3325C26.6653 25.0733 25.8784 23.9486 24.6959 23.5158C24.3498 23.3903 24.1709 23.0079 24.2965 22.6618C24.3379 22.5476 24.4098 22.4469 24.5043 22.3705C25.0772 21.9079 25.1666 21.0684 24.7039 20.4955C24.2413 19.9226 23.4018 19.8332 22.8289 20.2958C22.256 20.7584 22.1666 21.5979 22.6293 22.1708C22.6885 22.2443 22.7555 22.3112 22.8289 22.3705C23.1153 22.6019 23.16 23.0216 22.9286 23.308C22.8522 23.4026 22.7515 23.4744 22.6373 23.5158C21.4548 23.9486 20.6679 25.0733 20.6666 26.3325C20.6666 26.7007 20.3681 26.9992 19.9999 26.9992C19.6317 26.9992 19.3333 26.7007 19.3333 26.3325C19.3353 24.8445 20.0986 23.4611 21.3563 22.6658C20.6208 21.3899 21.0589 19.7592 22.3349 19.0238C23.6108 18.2883 25.2415 18.7264 25.9769 20.0024C26.452 20.8267 26.452 21.8416 25.9769 22.6658C27.2347 23.461 27.998 24.8445 27.9999 26.3325C27.9999 26.7007 27.7015 26.9992 27.3333 26.9992Z" fill="#EE1C25"/>
<path d="M16 26.9992C15.6318 26.9992 15.3333 26.7007 15.3333 26.3325C15.332 25.0733 14.5452 23.9486 13.3627 23.5158C13.0165 23.3903 12.8377 23.0079 12.9632 22.6618C13.0046 22.5476 13.0765 22.4469 13.171 22.3705C13.7439 21.9079 13.8333 21.0684 13.3707 20.4955C12.908 19.9226 12.0686 19.8332 11.4957 20.2958C10.9228 20.7584 10.8333 21.5979 11.296 22.1708C11.3553 22.2443 11.4223 22.3112 11.4957 22.3705C11.7821 22.6019 11.8267 23.0216 11.5953 23.308C11.519 23.4026 11.4183 23.4744 11.304 23.5158C10.1215 23.9486 9.33463 25.0733 9.33333 26.3325C9.33333 26.7007 9.03488 26.9992 8.66667 26.9992C8.29846 26.9992 8 26.7007 8 26.3325C8.00208 24.8445 8.76533 23.4611 10.023 22.6658C9.2875 21.3899 9.72567 19.7592 11.0016 19.0238C12.2776 18.2883 13.9082 18.7264 14.6437 20.0024C15.1188 20.8267 15.1188 21.8416 14.6437 22.6658C15.9014 23.461 16.6647 24.8445 16.6667 26.3325C16.6667 26.7007 16.3682 26.9992 16 26.9992Z" fill="#EE1C25"/>
<path d="M21.6667 15.3326C21.2985 15.3326 21.0001 15.0342 21.0001 14.666C20.9988 13.4068 20.2119 12.2821 19.0294 11.8493C18.6833 11.7238 18.5044 11.3414 18.63 10.9953C18.6714 10.881 18.7432 10.7803 18.8377 10.704C19.4107 10.2413 19.5001 9.40188 19.0374 8.82896C18.5748 8.25604 17.7353 8.16667 17.1624 8.62929C16.5895 9.09192 16.5001 9.93138 16.9627 10.5043C17.022 10.5778 17.089 10.6447 17.1624 10.704C17.4488 10.9353 17.4935 11.3551 17.2621 11.6415C17.1857 11.736 17.085 11.8079 16.9707 11.8493C15.7882 12.2821 15.0014 13.4068 15.0001 14.666C15.0001 15.0342 14.7016 15.3326 14.3334 15.3326C13.9652 15.3326 13.6667 15.0342 13.6667 14.666C13.6688 13.178 14.4321 11.7945 15.6897 10.9993C14.9542 9.72334 15.3924 8.09271 16.6684 7.35725C17.9443 6.62179 19.575 7.05992 20.3104 8.33588C20.7855 9.16013 20.7855 10.175 20.3104 10.9993C21.5682 11.7945 22.3315 13.178 22.3334 14.666C22.3334 15.0342 22.035 15.3326 21.6667 15.3326Z" fill="#EE1C25"/>
</g>
<defs>
<clipPath id="clip0_729_1215">
<rect width="20" height="20" fill="white" transform="translate(8 7)"/>
</clipPath>
</defs>
</svg>
