<svg width="35" height="35" viewBox="0 0 35 35" fill="none" xmlns="http://www.w3.org/2000/svg">
<circle cx="17.5" cy="17.5" r="17.5" fill="#D3AF37"/>
<path d="M18.0383 8.71436L17.9934 8.71452C16.3488 8.7261 14.7979 9.37645 13.6263 10.5457C12.4547 11.715 11.8013 13.2647 11.7866 14.9092C11.7709 16.6648 12.5001 18.3566 13.7873 19.5507C14.241 19.9716 14.5012 20.5605 14.5012 21.1665V24.5506H15.7654V24.6573C15.7654 25.9105 16.7851 26.9302 18.0383 26.9302C19.2916 26.9302 20.3113 25.9105 20.3113 24.6573V24.5506H21.5755V21.159C21.5755 20.5552 21.8304 19.9739 22.2749 19.5641C23.5557 18.3834 24.2904 16.7076 24.2904 14.9664C24.2903 11.519 21.4857 8.71436 18.0383 8.71436ZM19.0708 24.6572C19.0708 25.2266 18.6077 25.6898 18.0383 25.6898C17.4689 25.6898 17.0057 25.2266 17.0057 24.6572V24.5506H19.0708V24.6572H19.0708ZM15.7415 23.3103V21.7867H20.3351V23.3103H15.7415ZM21.4342 18.6521C20.8878 19.1558 20.5237 19.8246 20.3911 20.5463H18.6585V18.3893L20.3441 17.3051V15.4383H19.1038V16.6281L18.0383 17.3134L16.9728 16.6281V15.4383H15.7325V17.3051L17.4181 18.3893V20.5463H15.6838C15.5487 19.8244 15.1814 19.1521 14.6308 18.6414C13.5989 17.6841 13.0142 16.3278 13.0268 14.9203C13.0512 12.2015 15.2831 9.97401 18.002 9.95482L18.0383 9.9547C20.8017 9.9547 23.05 12.2029 23.05 14.9663C23.05 16.3621 22.461 17.7056 21.4342 18.6521Z" fill="white"/>
</svg>
