<svg width="35" height="35" viewBox="0 0 35 35" fill="none" xmlns="http://www.w3.org/2000/svg">
<circle cx="17.5" cy="17.5" r="17.5" fill="#D3AF37"/>
<g clip-path="url(#clip0_601_310)">
<path d="M18 17.6661C17.6318 17.6661 17.3333 17.3676 17.3333 16.9994V13.9994C17.3333 13.6312 17.6318 13.3328 18 13.3328C18.3682 13.3328 18.6666 13.6312 18.6666 13.9994V16.9994C18.6666 17.3676 18.3682 17.6661 18 17.6661Z" fill="white"/>
<path d="M15.4026 19.166C15.0344 19.166 14.736 18.8675 14.736 18.4993C14.736 18.2611 14.8631 18.0411 15.0693 17.922L17.6666 16.422C17.9867 16.24 18.3937 16.3519 18.5757 16.672C18.756 16.9891 18.648 17.3921 18.3333 17.5766L15.7353 19.0766C15.6342 19.1352 15.5195 19.166 15.4026 19.166Z" fill="white"/>
<path d="M20.5973 19.166C20.4803 19.1661 20.3653 19.1353 20.264 19.0766L17.6667 17.5766C17.349 17.3904 17.2425 16.982 17.4287 16.6643C17.6131 16.3497 18.0162 16.2417 18.3333 16.422L20.9313 17.922C21.2502 18.1061 21.3594 18.5138 21.1753 18.8327C21.0562 19.0389 20.8361 19.166 20.598 19.166H20.5973Z" fill="white"/>
<path d="M27.3333 26.9994C26.9651 26.9994 26.6666 26.7009 26.6666 26.3327C26.6654 25.0735 25.8785 23.9489 24.696 23.5161C24.3499 23.3906 24.171 23.0082 24.2965 22.6621C24.3379 22.5478 24.4098 22.4471 24.5043 22.3707C25.0772 21.9081 25.1666 21.0686 24.704 20.4957C24.2414 19.9228 23.4019 19.8334 22.829 20.2961C22.2561 20.7587 22.1666 21.5981 22.6293 22.1711C22.6886 22.2445 22.7556 22.3114 22.829 22.3707C23.1154 22.6021 23.16 23.0219 22.9286 23.3083C22.8523 23.4028 22.7516 23.4746 22.6373 23.5161C21.4548 23.9489 20.6679 25.0735 20.6666 26.3327C20.6666 26.7009 20.3682 26.9994 20 26.9994C19.6318 26.9994 19.3333 26.7009 19.3333 26.3327C19.3354 24.8448 20.0986 23.4613 21.3563 22.6661C20.6208 21.3901 21.059 19.7595 22.3349 19.024C23.6109 18.2885 25.2415 18.7267 25.977 20.0026C26.4521 20.8269 26.4521 21.8418 25.977 22.6661C27.2347 23.4612 27.998 24.8447 28 26.3327C28 26.7009 27.7015 26.9994 27.3333 26.9994Z" fill="white"/>
<path d="M16 26.9994C15.6318 26.9994 15.3333 26.7009 15.3333 26.3327C15.332 25.0735 14.5452 23.9489 13.3627 23.5161C13.0165 23.3906 12.8377 23.0082 12.9632 22.6621C13.0046 22.5478 13.0765 22.4471 13.171 22.3707C13.7439 21.9081 13.8333 21.0686 13.3707 20.4957C12.908 19.9228 12.0686 19.8334 11.4957 20.2961C10.9228 20.7587 10.8333 21.5981 11.296 22.1711C11.3553 22.2445 11.4223 22.3114 11.4957 22.3707C11.7821 22.6021 11.8267 23.0219 11.5953 23.3083C11.519 23.4028 11.4183 23.4746 11.304 23.5161C10.1215 23.9489 9.33463 25.0735 9.33333 26.3327C9.33333 26.7009 9.03488 26.9994 8.66667 26.9994C8.29846 26.9994 8 26.7009 8 26.3327C8.00208 24.8448 8.76533 23.4613 10.023 22.6661C9.2875 21.3901 9.72567 19.7595 11.0016 19.024C12.2776 18.2885 13.9082 18.7267 14.6437 20.0026C15.1188 20.8269 15.1188 21.8418 14.6437 22.6661C15.9014 23.4612 16.6647 24.8447 16.6667 26.3327C16.6667 26.7009 16.3682 26.9994 16 26.9994Z" fill="white"/>
<path d="M21.6667 15.3326C21.2985 15.3326 21 15.0342 21 14.666C20.9987 13.4068 20.2119 12.2821 19.0294 11.8493C18.6832 11.7238 18.5044 11.3414 18.6299 10.9953C18.6713 10.881 18.7432 10.7803 18.8377 10.704C19.4106 10.2413 19.5 9.40188 19.0374 8.82896C18.5747 8.25604 17.7353 8.16667 17.1624 8.62929C16.5894 9.09192 16.5001 9.93138 16.9627 10.5043C17.022 10.5778 17.0889 10.6447 17.1624 10.704C17.4488 10.9353 17.4934 11.3551 17.262 11.6415C17.1856 11.736 17.0849 11.8079 16.9707 11.8493C15.7882 12.2821 15.0013 13.4068 15 14.666C15 15.0342 14.7016 15.3326 14.3334 15.3326C13.9651 15.3326 13.6667 15.0342 13.6667 14.666C13.6688 13.178 14.432 11.7945 15.6897 10.9993C14.9542 9.72334 15.3924 8.09271 16.6683 7.35725C17.9443 6.62179 19.5749 7.05992 20.3104 8.33588C20.7855 9.16013 20.7855 10.175 20.3104 10.9993C21.5681 11.7945 22.3314 13.178 22.3334 14.666C22.3334 15.0342 22.0349 15.3326 21.6667 15.3326Z" fill="white"/>
</g>
<defs>
<clipPath id="clip0_601_310">
<rect width="20" height="20" fill="white" transform="translate(8 7)"/>
</clipPath>
</defs>
</svg>
