<svg width="35" height="35" viewBox="0 0 35 35" fill="none" xmlns="http://www.w3.org/2000/svg">
<circle cx="17.5" cy="17.5" r="17.5" fill="#D3AF37"/>
<g clip-path="url(#clip0_601_316)">
<path d="M23.5547 10.1212C23.659 10.4283 23.8326 10.7074 24.062 10.9367C24.2914 11.1661 24.5705 11.3396 24.8777 11.4438C24.4937 11.8587 24.0758 12.2833 23.6871 12.6517C23.2793 12.586 22.8773 12.5263 22.5242 12.4743C22.4723 12.1228 22.4125 11.7196 22.3469 11.3118C22.7156 10.9212 23.1402 10.5048 23.5547 10.1212ZM24.0484 8.0001C23.8642 7.99728 23.6843 8.05552 23.5367 8.16572C22.7199 8.82979 21.6832 9.82744 20.9789 10.6044C20.843 10.754 20.7875 10.979 20.8246 11.2024C20.9191 11.7626 21.0019 12.3247 21.0816 12.8677L16.4746 17.4739C16.3359 17.6132 16.2581 17.8018 16.2583 17.9984C16.2585 18.195 16.3367 18.3835 16.4757 18.5224C16.6147 18.6614 16.8031 18.7396 16.9997 18.7398C17.1963 18.74 17.3849 18.6622 17.5242 18.5235L22.1308 13.9173C22.6738 13.9954 23.2363 14.0794 23.7965 14.1739C23.8413 14.1814 23.8866 14.1852 23.932 14.1853C24.1013 14.189 24.266 14.13 24.3945 14.0196C25.1715 13.3165 26.1683 12.2786 26.8332 11.4618C27.1332 11.0798 27.0133 10.3856 26.5723 10.2899C26.2164 10.2095 25.8351 10.1337 25.4394 10.0606C25.3154 10.0371 25.2014 9.97681 25.1121 9.88756C25.0229 9.79832 24.9626 9.68426 24.939 9.56025C24.8656 9.16416 24.7902 8.78291 24.7098 8.42744C24.6492 8.15049 24.3543 8.0001 24.0484 8.0001Z" fill="white"/>
<path d="M17 28C22.523 28 27 23.5231 27 18C27.0019 16.5793 26.7 15.1746 26.1145 13.8801C25.7797 14.2191 25.4426 14.5441 25.1289 14.8293C25.0751 14.8778 25.0182 14.9228 24.9586 14.9641C25.405 16.1315 25.5889 17.3829 25.4975 18.6294C25.406 19.8759 25.0413 21.0871 24.4293 22.1769C23.8174 23.2667 22.973 24.2084 21.9563 24.9353C20.9395 25.6622 19.7753 26.1565 18.5461 26.383C17.3169 26.6095 16.0529 26.5627 14.8439 26.246C13.6348 25.9293 12.5102 25.3504 11.5499 24.5503C10.5897 23.7503 9.81725 22.7487 9.28746 21.6167C8.75766 20.4846 8.48348 19.2499 8.48438 18C8.48539 16.6205 8.82135 15.2618 9.46338 14.0408C10.1054 12.8197 11.0343 11.7729 12.1703 10.9901C13.3062 10.2073 14.6153 9.71204 15.9849 9.54687C17.3545 9.38169 18.7437 9.55154 20.0332 10.0418C20.0745 9.98142 20.1198 9.92387 20.1687 9.86954C20.4523 9.55704 20.7777 9.21954 21.1168 8.88516C19.8232 8.30034 18.4196 7.99856 17 8.00001C11.4773 8.00001 7 12.4781 7 18C7 23.5219 11.4773 28 17 28Z" fill="white"/>
<path d="M17 13.291C17.6063 13.2901 18.207 13.4064 18.7692 13.6336L19.8844 12.5187C18.5736 11.8294 17.0592 11.6327 15.6158 11.9645C14.1725 12.2963 12.8959 13.1345 12.0178 14.327C11.1396 15.5196 10.7181 16.9874 10.8297 18.4642C10.9413 19.941 11.5786 21.3288 12.6259 22.3759C13.6733 23.4229 15.0613 24.0598 16.5381 24.1709C18.0149 24.2821 19.4827 23.8601 20.6749 22.9816C21.8672 22.1031 22.7051 20.8263 23.0364 19.3828C23.3677 17.9394 23.1706 16.425 22.4809 15.1144L21.366 16.2293C21.7459 17.1644 21.8154 18.1968 21.5643 19.1744C21.3132 20.152 20.7548 21.0231 19.9713 21.6594C19.1879 22.2957 18.2208 22.6636 17.2125 22.7089C16.2041 22.7542 15.208 22.4745 14.3706 21.9109C13.5332 21.3474 12.899 20.5299 12.5613 19.5787C12.2236 18.6276 12.2002 17.5931 12.4947 16.6277C12.7892 15.6623 13.3859 14.817 14.197 14.2163C15.0081 13.6156 15.9907 13.2912 17 13.291Z" fill="white"/>
</g>
<defs>
<clipPath id="clip0_601_316">
<rect width="20" height="20" fill="white" transform="translate(7 8)"/>
</clipPath>
</defs>
</svg>
