<svg width="55" height="55" viewBox="0 0 55 55" fill="none" xmlns="http://www.w3.org/2000/svg">
<path fill-rule="evenodd" clip-rule="evenodd" d="M5.15625 10.3125C5.15625 7.46478 7.46478 5.15625 10.3125 5.15625H44.6875C47.5354 5.15625 49.8438 7.46481 49.8438 10.3125V27.5C49.8438 28.4492 49.0742 29.2188 48.125 29.2188C47.1758 29.2188 46.4062 28.4492 46.4062 27.5V10.3125C46.4062 9.36325 45.6367 8.59375 44.6875 8.59375H10.3125C9.36327 8.59375 8.59375 9.36327 8.59375 10.3125V44.6875C8.59375 45.6367 9.36325 46.4062 10.3125 46.4062H27.5C28.4492 46.4062 29.2188 47.1758 29.2188 48.125C29.2188 49.0742 28.4492 49.8438 27.5 49.8438H10.3125C7.46481 49.8438 5.15625 47.5354 5.15625 44.6875V10.3125Z" fill="#333333"/>
<path fill-rule="evenodd" clip-rule="evenodd" d="M44.7456 36.0938C45.6948 36.0938 46.4644 36.8633 46.4644 37.8125V49.2708C46.4644 50.22 45.6948 50.9896 44.7456 50.9896C43.7964 50.9896 43.0269 50.22 43.0269 49.2708V37.8125C43.0269 36.8633 43.7964 36.0938 44.7456 36.0938Z" fill="#333333"/>
<path fill-rule="evenodd" clip-rule="evenodd" d="M37.2395 43.4841C37.2395 42.5347 38.009 41.7654 38.9583 41.7654H50.4166C51.3658 41.7654 52.1353 42.5347 52.1353 43.4841C52.1353 44.4333 51.3658 45.2029 50.4166 45.2029H38.9583C38.009 45.2029 37.2395 44.4333 37.2395 43.4841Z" fill="#333333"/>
<path fill-rule="evenodd" clip-rule="evenodd" d="M27.4999 16.6146C25.285 16.6146 23.4895 18.4101 23.4895 20.625C23.4895 22.8399 25.285 24.6355 27.4999 24.6355C29.7148 24.6355 31.5103 22.8399 31.5103 20.625C31.5103 18.4101 29.7148 16.6146 27.4999 16.6146ZM20.052 20.625C20.052 16.5117 23.3866 13.1771 27.4999 13.1771C31.6132 13.1771 34.9478 16.5117 34.9478 20.625C34.9478 24.7384 31.6132 28.073 27.4999 28.073C23.3866 28.073 20.052 24.7384 20.052 20.625Z" fill="#D3AF37"/>
<path fill-rule="evenodd" clip-rule="evenodd" d="M15.4688 35.5208C15.4688 29.3241 21.0512 24.6354 27.5 24.6354C33.9487 24.6354 39.5312 29.3241 39.5312 35.5208C39.5312 36.47 38.7617 37.2395 37.8125 37.2395C36.8633 37.2395 36.0938 36.47 36.0938 35.5208C36.0938 31.5922 32.4422 28.0729 27.5 28.0729C22.5579 28.0729 18.9062 31.5922 18.9062 35.5208C18.9062 36.47 18.1367 37.2395 17.1875 37.2395C16.2383 37.2395 15.4688 36.47 15.4688 35.5208Z" fill="#D3AF37"/>
</svg>
