<svg width="55" height="55" viewBox="0 0 55 55" fill="none" xmlns="http://www.w3.org/2000/svg">
<path d="M44.1605 10.1396C40.6004 6.71387 36.1382 4.49829 31.2766 3.73627C30.1076 3.538 28.9101 3.44296 27.5114 3.43981C27.5073 3.43981 27.5041 3.4375 27.5 3.4375C27.4972 3.4375 27.495 3.43907 27.4921 3.43907C27.4768 3.43907 27.4642 3.4375 27.4488 3.4375C26.1472 3.4375 24.8942 3.53821 23.7453 3.73291C18.8618 4.49829 14.3996 6.71387 10.8471 10.1329C10.1069 10.8362 9.39354 11.6183 8.73138 12.4509C5.26787 16.7645 3.4375 21.9678 3.4375 27.5C3.4375 33.0322 5.26787 38.2355 8.72635 42.5424C12.4054 47.1624 17.8905 50.383 23.7293 51.2604C24.754 51.4417 25.8635 51.544 27.0258 51.5625H27.0544C27.9901 51.5625 28.7572 50.8105 28.7723 49.8723C28.7874 48.9223 28.0304 48.1401 27.0812 48.125C26.3213 48.1133 25.603 48.0471 24.9047 47.9512C23.2181 46.1015 21.7946 44.0677 20.6107 41.8641C22.4899 41.3908 24.3854 41.1014 26.2638 41.0251C27.213 40.9865 27.9498 40.1859 27.9112 39.2375C27.8726 38.2892 27.0628 37.5372 26.1245 37.5909C23.8004 37.6856 21.4571 38.0672 19.1307 38.7018C18.9988 38.3727 18.8422 38.0613 18.7199 37.7252C18.6713 37.6178 18.6327 37.5121 18.5605 37.2771C18.5504 37.2485 18.5387 37.2166 18.5252 37.1814C17.6695 34.6115 17.183 31.9389 17.0326 29.2188H27.5C28.4492 29.2188 29.2188 28.45 29.2188 27.5V17.3843C31.4506 17.2628 33.6607 16.9036 35.8218 16.3141C36.007 16.8138 36.2046 17.3345 36.385 17.8438C37.0077 19.722 37.4458 21.7076 37.6866 23.7486C37.7898 24.6231 38.5326 25.266 39.3911 25.266C39.4591 25.266 39.5271 25.2626 39.595 25.2542C40.5375 25.1434 41.2114 24.2891 41.1006 23.3458C40.8304 21.0564 40.3361 18.8257 39.6152 16.6689C39.4602 16.1871 39.2561 15.7107 39.0887 15.2407C40.3216 14.7555 41.5177 14.1804 42.6755 13.5344C42.987 13.8744 43.2921 14.2299 43.5881 14.6027C46.1949 17.8499 47.7202 21.685 48.0537 25.7812H45.066C44.1168 25.7812 43.3472 26.55 43.3472 27.5C43.3472 28.45 44.1168 29.2188 45.066 29.2188H48.0441C48.0108 29.6208 47.9738 30.0253 47.9169 30.4507C47.791 31.3924 48.4523 32.2568 49.3931 32.3827C50.3255 32.5018 51.1991 31.8472 51.3242 30.9073C51.4845 29.7055 51.5625 28.591 51.5625 27.5C51.5625 21.9678 49.7321 16.7645 46.2737 12.4576C45.6065 11.6183 44.8931 10.8362 44.1605 10.1396ZM37.6786 12.05C37.3567 11.4274 37.031 10.8158 36.6728 10.2286C36.3455 9.66031 35.9948 9.10096 35.6286 8.54864C37.1597 9.20398 38.6033 10.0478 39.9394 11.0632C39.2064 11.4297 38.4491 11.7511 37.6786 12.05ZM25.7812 6.94361V13.9386C24.0417 13.8323 22.3116 13.558 20.6102 13.1298C21.7805 10.939 23.2 8.90259 24.8834 7.0546C25.1796 7.01526 25.4669 6.96962 25.7812 6.94361ZM17.2931 12.037C16.5411 11.7428 15.7979 11.4255 15.0649 11.0596C16.3956 10.0489 17.8348 9.20796 19.3635 8.55336C18.6071 9.6729 17.9102 10.8301 17.2931 12.037ZM18.5596 17.7666C18.693 17.2635 18.9455 16.7951 19.1403 16.2984C21.3246 16.8953 23.5478 17.2598 25.7812 17.383V25.7812H17.0342C17.1882 23.0663 17.6856 20.3768 18.5596 17.7666ZM11.4169 14.5959C11.7164 14.219 12.0503 13.8993 12.369 13.5528C13.509 14.1824 14.6761 14.7421 15.8685 15.2167C15.6625 15.7337 15.4178 16.1754 15.2782 16.7393C14.299 19.6836 13.7522 22.7178 13.5962 25.7812H6.94633C7.27983 21.685 8.80576 17.849 11.4169 14.5959ZM19.3721 46.4459C17.8462 45.7914 16.4075 44.9493 15.0761 43.9368C15.7973 43.5764 16.5377 43.2601 17.2921 42.9623C17.9119 44.1671 18.6113 45.3249 19.3721 46.4459ZM15.2824 38.3244C15.4641 38.902 15.6611 39.3099 15.8788 39.83C14.664 40.3171 13.4915 40.8705 12.365 41.4966C12.0257 41.1299 11.7043 40.765 11.4119 40.3973C8.80513 37.1501 7.27983 33.315 6.94633 29.2188H13.5955C13.7502 32.3292 14.2986 35.3871 15.2824 38.3244ZM29.2188 6.94885C29.5195 6.97382 29.8126 7.01715 30.108 7.05606C31.4836 8.59365 32.7055 10.2291 33.7154 11.9809C33.9518 12.3685 34.1482 12.7569 34.3576 13.1427C32.6715 13.5644 30.9523 13.8369 29.2188 13.9413V6.94885Z" fill="#333333"/>
<path d="M49.0651 36.6023L36.9306 28.1059C36.0326 27.4781 34.9022 27.3808 33.9068 27.8424C32.9123 28.3056 32.2619 29.2355 32.1654 30.3299L30.8747 45.0853C30.758 46.4129 31.4739 47.6114 32.6975 48.1384C33.9194 48.6604 35.284 48.3633 36.1702 47.3663L37.0288 46.3978L38.62 49.8101C39.1344 50.9129 40.2321 51.5608 41.376 51.5608C41.8049 51.5608 42.2404 51.4701 42.6542 51.2771L46.236 49.6071C46.9712 49.2646 47.5293 48.657 47.8062 47.895C48.084 47.133 48.0479 46.3089 47.7055 45.572L46.1143 42.1614L47.4084 42.1261C48.7403 42.0892 49.8481 41.2399 50.2316 39.9643C50.6143 38.6869 50.1569 37.3677 49.0651 36.6023ZM37.7279 41.5991C37.6456 41.5873 37.5625 41.5806 37.4803 41.5806C36.9927 41.5806 36.5236 41.7888 36.1946 42.158L34.4045 44.1755L35.5291 31.3202L46.0992 38.7222L43.4036 38.796C42.8245 38.8128 42.2924 39.1183 41.9886 39.6118C41.684 40.1036 41.6479 40.7162 41.893 41.2416L44.4207 46.6613L41.5657 47.9924L39.0379 42.5726C38.7937 42.0489 38.3011 41.6813 37.7279 41.5991Z" fill="#D3AF37"/>
</svg>
