<svg width="55" height="55" viewBox="0 0 55 55" fill="none" xmlns="http://www.w3.org/2000/svg">
<g clip-path="url(#clip0_48_648)">
<path d="M50.8051 14.9172L50.8041 14.8648C50.7781 13.4936 50.7535 12.1985 50.7535 10.9525C50.7535 9.06487 49.2179 7.52925 47.3303 7.52925C40.0267 7.52925 34.4836 5.44692 29.8856 0.976155C28.5474 -0.325313 26.4506 -0.325421 25.1125 0.976047C20.5147 5.44692 14.9721 7.52925 7.66962 7.52925C5.78202 7.52925 4.24641 9.06487 4.24641 10.9525C4.24641 12.2251 4.22138 13.5332 4.19485 14.9183C4.07133 21.3844 3.91763 29.4317 6.6182 36.7363C8.10312 40.7529 10.3515 44.2435 13.3009 47.1111C16.6601 50.3771 21.0599 52.9677 26.3776 54.811C26.7392 54.9364 27.1165 55 27.4989 55C27.8819 55 28.2593 54.9363 28.6201 54.8111C33.9385 52.9676 38.3386 50.3769 41.6981 47.1109C44.6478 44.2432 46.8965 40.7525 48.3815 36.7358C51.0823 29.4307 50.9286 21.3833 50.8051 14.9172ZM45.359 35.6184C42.511 43.3214 36.6904 48.6035 27.5637 51.7669C27.522 51.7813 27.4763 51.7816 27.4331 51.7666C18.308 48.6036 12.488 43.3217 9.64035 35.619C7.15084 28.885 7.29187 21.4976 7.41635 14.9799C7.4432 13.5791 7.46855 12.2561 7.46855 10.9525C7.46855 10.8417 7.55867 10.7515 7.66951 10.7515C15.8647 10.7515 22.1211 8.37939 27.3589 3.28608C27.3981 3.24795 27.4485 3.22883 27.4988 3.22883C27.5492 3.22883 27.5997 3.24806 27.639 3.28619C32.8771 8.37939 39.1341 10.7515 47.3302 10.7515C47.4409 10.7515 47.5312 10.8417 47.5312 10.9525C47.5312 12.2291 47.556 13.5391 47.5824 14.9259L47.5834 14.9786V14.9787C47.7079 21.4965 47.849 28.884 45.359 35.6184Z" fill="#333333"/>
<path d="M37.5108 22.1389H32.3267V16.9541C32.3267 16.0644 31.6053 15.343 30.7156 15.343H24.2855C23.3957 15.343 22.6743 16.0644 22.6743 16.9541V22.1389H17.4893C16.5995 22.1389 15.8782 22.8602 15.8782 23.75V30.1801C15.8782 31.0699 16.5995 31.7912 17.4893 31.7912H22.6743V36.9758C22.6743 37.8656 23.3957 38.587 24.2855 38.587H30.7156C31.6053 38.587 32.3267 37.8656 32.3267 36.9758V31.7912H37.5109C38.4007 31.7912 39.122 31.0699 39.122 30.1801V23.75C39.1219 22.8601 38.4005 22.1389 37.5108 22.1389ZM35.8996 28.569H30.7156C29.8258 28.569 29.1045 29.2903 29.1045 30.1801V35.3647H25.8966V30.1801C25.8966 29.2903 25.1752 28.569 24.2855 28.569H19.1004V25.3611H24.2855C25.1752 25.3611 25.8966 24.6398 25.8966 23.75V18.5653H29.1045V23.75C29.1045 24.6398 29.8258 25.3611 30.7156 25.3611H35.8998V28.569H35.8996Z" fill="#D3AF37"/>
</g>
<defs>
<clipPath id="clip0_48_648">
<rect width="55" height="55" fill="white"/>
</clipPath>
</defs>
</svg>
