<svg width="55" height="55" viewBox="0 0 55 55" fill="none" xmlns="http://www.w3.org/2000/svg">
<g clip-path="url(#clip0_48_612)">
<path d="M17.6211 18.3036L13.4016 22.4801L11.8461 20.7388C11.2531 20.0749 10.2348 20.0169 9.5709 20.6099C8.90703 21.2018 8.8501 22.2212 9.44199 22.8851L12.1275 25.8929C12.7409 26.5793 13.8076 26.6137 14.464 25.9638L19.8888 20.5927C20.5204 19.9675 20.5258 18.947 19.8995 18.3143C19.2732 17.6816 18.2538 17.6773 17.6211 18.3036Z" fill="#D3AF37"/>
<path d="M24.5015 24.6383H33.6323C34.5229 24.6383 35.2437 23.9175 35.2437 23.027C35.2437 22.1375 34.5229 21.4156 33.6323 21.4156H24.5015C23.612 21.4156 22.8901 22.1375 22.8901 23.027C22.8901 23.9175 23.612 24.6383 24.5015 24.6383Z" fill="#333333"/>
<path d="M17.6211 28.4646L13.4016 32.6423L11.8461 30.8999C11.2531 30.236 10.2348 30.178 9.5709 30.771C8.90703 31.364 8.8501 32.3823 9.44199 33.0462L12.1275 36.054C12.7409 36.7415 13.8076 36.7759 14.464 36.126L19.8888 30.7549C20.5204 30.1286 20.5258 29.1081 19.8995 28.4765C19.2732 27.8437 18.2538 27.8384 17.6211 28.4646Z" fill="#D3AF37"/>
<path d="M17.6211 38.6268L13.4016 42.8034L11.8461 41.0621C11.2531 40.3982 10.2348 40.3402 9.5709 40.9331C8.90703 41.525 8.8501 42.5445 9.44199 43.2083L12.1275 46.2162C12.7409 46.9026 13.8076 46.937 14.464 46.2871L19.8888 40.916C20.5204 40.2908 20.5258 39.2703 19.8995 38.6375C19.2732 38.0048 18.2538 38.0005 17.6211 38.6268Z" fill="#D3AF37"/>
<path d="M24.5469 34.8004H29.0239C29.9137 34.8004 30.6352 34.079 30.6352 33.1891C30.6352 32.2992 29.9137 31.5778 29.0239 31.5778H24.5015C23.5868 31.5778 22.8494 32.3401 22.8919 33.2654C22.932 34.1327 23.6786 34.8004 24.5469 34.8004Z" fill="#333333"/>
<path d="M50.4479 36.02C52.1882 34.219 52.7289 31.5323 52.0531 28.0301C51.9284 27.3837 51.4227 26.878 50.7763 26.7533C47.8699 26.1922 45.5247 26.4691 43.7816 27.5741V11.4168C43.7816 9.34355 42.094 7.65703 40.0218 7.65703H34.2168C33.5507 5.77178 31.7514 4.41719 29.6417 4.41719H27.288C26.9055 1.91963 24.742 0 22.1381 0C19.5353 0 17.3718 1.91963 16.9883 4.41719H14.6358C12.526 4.41719 10.7256 5.77178 10.0607 7.65703H4.25562C2.18237 7.65703 0.49585 9.34355 0.49585 11.4168V51.2402C0.49585 53.3135 2.18237 55 4.25562 55H47.3743C47.9211 55 49.7345 54.5674 51.0335 52.9612C56.6956 45.9625 54.6496 38.7878 50.4479 36.02ZM49.0571 29.7493C49.2559 31.614 48.9328 32.981 48.0922 33.821C47.0588 34.8538 45.2404 35.0821 43.7894 35.0174C43.6036 30.8821 45.4771 29.3675 49.0571 29.7493ZM14.3962 7.65703C14.5735 7.63232 14.277 7.63984 18.5395 7.63984C19.43 7.63984 20.1508 6.91904 20.1508 6.02852V5.20996C20.1508 4.11426 21.0424 3.22266 22.1381 3.22266C23.2338 3.22266 24.1254 4.11426 24.1254 5.20996V6.02852C24.1254 6.91904 24.8473 7.63984 25.7368 7.63984C29.9982 7.63984 29.706 7.63232 29.88 7.65703C30.6642 7.77305 31.269 8.45195 31.269 9.26836C31.269 10.0848 30.6642 10.7637 29.88 10.8797C29.691 10.9055 14.6025 10.9076 14.3962 10.8797C13.6121 10.7637 13.0073 10.0848 13.0073 9.26836C13.0073 8.45195 13.6121 7.77305 14.3962 7.65703ZM24.5014 44.9614H29.8639C30.0393 47.2344 30.9038 49.5638 32.422 51.7773H4.25562C3.95913 51.7773 3.71851 51.5367 3.71851 51.2402V11.4168C3.71851 11.1203 3.95913 10.8797 4.25562 10.8797H10.0607C10.7256 12.7649 12.526 14.1195 14.6358 14.1195H29.6416C31.7513 14.1195 33.5506 12.7649 34.2167 10.8797H40.0217C40.3171 10.8797 40.5588 11.1203 40.5588 11.4168V35.5228C39.4123 34.9533 38.1622 34.7272 36.8907 34.8882C33.7524 35.2853 30.9604 37.9384 30.0935 41.7388H24.5014C23.612 41.7388 22.8901 42.4606 22.8901 43.3501C22.8901 44.2406 23.612 44.9614 24.5014 44.9614ZM48.5281 50.9345C48.1941 51.3475 47.7168 51.6498 47.2033 51.7773C46.2411 51.7773 38.2956 51.7773 37.2837 51.7773C36.6928 51.6698 36.1602 51.3661 35.8111 50.9344C30.5357 44.4135 33.8796 38.5176 37.2954 38.0852C38.6164 37.9183 39.853 38.5619 40.8717 39.9469C41.5152 40.8219 42.8246 40.8214 43.4678 39.9469C44.4864 38.5618 45.7227 37.9182 47.0441 38.0852C50.4586 38.5175 53.8048 44.4119 48.5281 50.9345Z" fill="#333333"/>
</g>
<defs>
<clipPath id="clip0_48_612">
<rect width="55" height="55" fill="white"/>
</clipPath>
</defs>
</svg>
