<svg width="90" height="90" viewBox="0 0 90 90" fill="none" xmlns="http://www.w3.org/2000/svg">
<path d="M31.7643 57.5847C21.8986 57.5847 13.873 49.5592 13.873 39.6935C13.873 29.8278 21.8986 21.8022 31.7643 21.8022C41.63 21.8022 49.6555 29.8278 49.6555 39.6935C49.6555 49.5592 41.63 57.5847 31.7643 57.5847ZM31.7643 26.021C24.2249 26.021 18.0918 32.1541 18.0918 39.6935C18.0918 47.2329 24.2249 53.366 31.7643 53.366C39.3037 53.366 45.4368 47.2329 45.4368 39.6935C45.4368 32.1541 39.3037 26.021 31.7643 26.021Z" fill="#333333"/>
<path d="M31.7642 50.2405C25.9483 50.2405 21.2173 45.5095 21.2173 39.6936C21.2173 33.8777 25.9483 29.1467 31.7642 29.1467C37.58 29.1467 42.311 33.8777 42.311 39.6936C42.311 45.5095 37.58 50.2405 31.7642 50.2405ZM31.7642 33.3655C28.2746 33.3655 25.436 36.2041 25.436 39.6936C25.436 43.1831 28.2746 46.0217 31.7642 46.0217C35.2537 46.0217 38.0923 43.1831 38.0923 39.6936C38.0923 36.2041 35.2537 33.3655 31.7642 33.3655Z" fill="#333333"/>
<path d="M10.4617 66.5344C8.98819 66.5344 7.59842 65.9618 6.54785 64.9222C4.39453 62.7428 4.39728 59.2395 6.53961 57.0944L16.9643 46.6835C17.7855 45.8623 19.1231 45.8595 19.9471 46.6862C20.7697 47.5102 20.7697 48.8451 19.9443 49.669L9.52241 60.0786C9.00743 60.5935 9.01155 61.412 9.53203 61.9394C10.0058 62.4077 10.8834 62.4324 11.3695 61.9394L21.7941 51.5134C22.6181 50.6894 23.953 50.6894 24.7769 51.5134C25.6009 52.3373 25.6009 53.6722 24.7769 54.4961L14.3605 64.9139C13.3305 65.9562 11.9435 66.5344 10.4617 66.5344Z" fill="#333333"/>
<path d="M45 80.8606H26.7188C23.2292 80.8606 20.3906 78.022 20.3906 74.5325V53.7903C20.3906 52.6257 21.3355 51.6809 22.5 51.6809C23.6645 51.6809 24.6094 52.6257 24.6094 53.7903V74.5325C24.6094 75.6957 25.5556 76.6418 26.7188 76.6418H45C46.1645 76.6418 47.1094 77.5867 47.1094 78.7512C47.1094 79.9158 46.1645 80.8606 45 80.8606Z" fill="#333333"/>
<path d="M78.75 57.0354C77.5855 57.0354 76.6406 56.0906 76.6406 54.9261V11.2485C76.6406 10.0854 75.6944 9.13916 74.5312 9.13916H26.7188C25.5556 9.13916 24.6094 10.0854 24.6094 11.2485V26.9288C24.6094 28.0933 23.6645 29.0381 22.5 29.0381C21.3355 29.0381 20.3906 28.0933 20.3906 26.9288V11.2485C20.3906 7.759 23.2292 4.92041 26.7188 4.92041H74.5312C78.0208 4.92041 80.8594 7.759 80.8594 11.2485V54.9261C80.8594 56.0906 79.9145 57.0354 78.75 57.0354Z" fill="#333333"/>
<path d="M60.5781 19.2188H45.1094C43.9448 19.2188 43 18.2739 43 17.1094C43 15.9448 43.9448 15 45.1094 15H60.5781C61.7427 15 62.6875 15.9448 62.6875 17.1094C62.6875 18.2739 61.7427 19.2188 60.5781 19.2188Z" fill="#EE1C25"/>
<path d="M69.6212 35.2188H56.1094C54.9448 35.2188 54 34.2739 54 33.1094C54 31.9448 54.9448 31 56.1094 31H69.6212C70.7857 31 71.7306 31.9448 71.7306 33.1094C71.7306 34.2739 70.7857 35.2188 69.6212 35.2188Z" fill="#EE1C25"/>
<path d="M40.7812 72.4231H32.3438C31.1792 72.4231 30.2344 71.4783 30.2344 70.3137C30.2344 69.1492 31.1792 68.2043 32.3438 68.2043H40.7812C41.9458 68.2043 42.8906 69.1492 42.8906 70.3137C42.8906 71.4783 41.9458 72.4231 40.7812 72.4231Z" fill="#EE1C25"/>
<path d="M66.0938 85.0781C55.6251 85.0781 47.1094 76.5624 47.1094 66.0938C47.1094 55.6251 55.6251 47.1094 66.0938 47.1094C76.5624 47.1094 85.0781 55.6251 85.0781 66.0938C85.0781 76.5624 76.5624 85.0781 66.0938 85.0781ZM66.0938 51.3281C57.9515 51.3281 51.3281 57.9515 51.3281 66.0938C51.3281 74.236 57.9515 80.8594 66.0938 80.8594C74.236 80.8594 80.8594 74.236 80.8594 66.0938C80.8594 57.9515 74.236 51.3281 66.0938 51.3281Z" fill="#333333"/>
<path d="M59.0625 75.2344C58.5228 75.2344 57.9831 75.0284 57.5711 74.6164C56.7471 73.7924 56.7471 72.4576 57.5711 71.6336L71.6336 57.5711C72.4576 56.7471 73.7924 56.7471 74.6164 57.5711C75.4404 58.3951 75.4404 59.7299 74.6164 60.5539L60.5539 74.6164C60.1419 75.0284 59.6022 75.2344 59.0625 75.2344Z" fill="#333333"/>
<path d="M73.125 75.2344C72.5853 75.2344 72.0456 75.0284 71.6336 74.6164L57.5711 60.5539C56.7471 59.7299 56.7471 58.3951 57.5711 57.5711C58.3951 56.7471 59.7299 56.7471 60.5539 57.5711L74.6164 71.6336C75.4404 72.4576 75.4404 73.7924 74.6164 74.6164C74.2044 75.0284 73.6647 75.2344 73.125 75.2344Z" fill="#333333"/>
</svg>
