<svg width="55" height="55" viewBox="0 0 55 55" fill="none" xmlns="http://www.w3.org/2000/svg">
<g clip-path="url(#clip0_48_693)">
<path d="M14.5773 9.32697C14.9824 9.98471 15.6854 10.3469 16.405 10.3469C16.7886 10.3469 17.1771 10.2439 17.5275 10.0281C18.5357 9.407 18.8497 8.08625 18.2286 7.07799L16.619 4.46485C15.998 3.45659 14.677 3.14281 13.6689 3.76371C12.6606 4.38482 12.3467 5.70557 12.9677 6.71383L14.5773 9.32697Z" fill="#333333"/>
<path d="M7.2186 36.7727L4.49814 38.275C3.46152 38.8474 3.08522 40.1519 3.65778 41.1885C4.0488 41.8965 4.7812 42.2965 5.53669 42.2965C5.88721 42.2965 6.24267 42.2105 6.57127 42.0289L9.29173 40.5267C10.3283 39.9542 10.7046 38.6498 10.1321 37.6132C9.55964 36.5765 8.25543 36.2002 7.2186 36.7727Z" fill="#333333"/>
<path d="M27.4454 7.55929C28.6296 7.55929 29.5895 6.59937 29.5895 5.41515V2.19895C29.5895 1.01473 28.6296 0.0548096 27.4454 0.0548096C26.2612 0.0548096 25.3013 1.01473 25.3013 2.19895V5.41515C25.3013 6.59926 26.2612 7.55929 27.4454 7.55929Z" fill="#333333"/>
<path d="M7.50459 27.5C7.50459 26.3158 6.54467 25.3558 5.36045 25.3558H2.14414C0.95992 25.3558 0 26.3158 0 27.5C0 28.6842 0.95992 29.6441 2.14414 29.6441H5.36034C6.54467 29.6442 7.50459 28.6843 7.50459 27.5Z" fill="#333333"/>
<path d="M25.523 39.7889C25.4003 39.7697 25.2784 39.7491 25.1569 39.7264C19.2771 38.634 15.0093 33.4919 15.0093 27.5C15.0093 21.3313 19.6076 16.0367 25.7057 15.1843C25.8563 15.1632 26.0101 15.1447 26.1628 15.129C27.3409 15.0085 28.1981 13.956 28.0778 12.7778C27.9573 11.5998 26.9046 10.7422 25.7266 10.8629C25.5213 10.8838 25.3144 10.9089 25.1118 10.9372C21.1528 11.4907 17.5144 13.4583 14.8668 16.4778C12.1932 19.5268 10.7209 23.4411 10.7209 27.5C10.7209 35.5576 16.4627 42.4728 24.3734 43.9426C24.5351 43.9726 24.7006 44.0009 24.8651 44.0264C24.9766 44.0438 25.0872 44.0522 25.1967 44.0522C26.2358 44.0521 27.1485 43.2953 27.3129 42.2367C27.4944 41.0664 26.6932 39.9706 25.523 39.7889Z" fill="#333333"/>
<path d="M54.5483 23.7352C53.7316 21.9574 51.9856 20.853 49.9915 20.853H46.137L54.6851 6.62661C55.0831 5.96424 55.0939 5.13892 54.7134 4.46646C54.3329 3.794 53.6198 3.37817 52.8472 3.37817H40.096C39.3329 3.37817 38.6275 3.78369 38.2434 4.44272L25.7393 25.9C25.7292 25.9173 25.7194 25.9346 25.7099 25.9522C24.611 27.9653 24.6538 30.3447 25.8241 32.3169C26.9945 34.2893 29.0626 35.4669 31.356 35.4669H33.4539L28.0367 50.5551C27.6176 51.5513 27.6894 52.6009 28.2385 53.4499C28.8447 54.3872 29.9561 54.9454 31.2141 54.9454C31.2198 54.9454 31.2254 54.9454 31.231 54.9454C32.2995 54.9412 33.3324 54.5176 34.0648 53.783C34.1295 53.718 34.1901 53.649 34.2461 53.5762L45.9657 38.3363C46.6876 37.3975 46.5118 36.0513 45.5731 35.3296C44.6343 34.6076 43.2881 34.7833 42.5663 35.7222L33.8482 47.0588L38.5198 34.0474C38.7557 33.3905 38.6569 32.66 38.2554 32.0891C37.8537 31.5182 37.1997 31.1786 36.5016 31.1786H31.3557C30.2538 31.1786 29.6992 30.4444 29.5117 30.1286C29.3258 29.8154 28.9515 28.9871 29.4616 28.0292L41.3281 7.66655H49.0575L40.5094 21.8931C40.1114 22.5554 40.1007 23.3806 40.4812 24.0532C40.8617 24.7258 41.5747 25.1415 42.3473 25.1415H49.9915C50.4122 25.1415 50.5855 25.382 50.6513 25.5253C50.7285 25.6931 50.768 25.9538 50.5191 26.2435C50.5137 26.2498 50.5085 26.256 50.5032 26.2622L49.6229 27.3112C48.8616 28.2181 48.9798 29.5707 49.8869 30.332C50.794 31.0933 52.1464 30.975 52.9077 30.0679L53.781 29.0274C55.0644 27.5255 55.3584 25.4992 54.5483 23.7352Z" fill="#D3AF37"/>
<path d="M9.53621 13.9543L6.91899 12.4534C5.89182 11.8644 4.58139 12.2195 3.99229 13.2467C3.40319 14.274 3.75832 15.5843 4.7856 16.1734L7.40293 17.6743C7.73926 17.8672 8.10589 17.9589 8.46758 17.9589C9.21072 17.9588 9.93335 17.5718 10.3296 16.881C10.9187 15.8537 10.5635 14.5434 9.53621 13.9543Z" fill="#333333"/>
<path d="M16.8406 44.5168C15.8179 43.9202 14.5049 44.2651 13.9079 45.2879L12.3412 47.972C11.7444 48.9948 12.0895 50.3078 13.1123 50.9047C13.4522 51.103 13.8241 51.1974 14.1911 51.1974C14.9285 51.1974 15.6464 50.8166 16.045 50.1338L17.6116 47.4496C18.2085 46.4267 17.8633 45.1137 16.8406 44.5168Z" fill="#333333"/>
</g>
<defs>
<clipPath id="clip0_48_693">
<rect width="55" height="55" fill="white"/>
</clipPath>
</defs>
</svg>
